<?xml version="1.0" encoding="utf-8"?>
<!-- Generator: Adobe Illustrator 19.0.0, SVG Export Plug-In . SVG Version: 6.00 Build 0)  -->
<svg version="1.1" id="Layer_1" xmlns="http://www.w3.org/2000/svg" xmlns:xlink="http://www.w3.org/1999/xlink" x="0px" y="0px"
	 viewBox="0 0 1920 1080" style="enable-background:new 0 0 1920 1080;" xml:space="preserve">
<style type="text/css">
	.st0{fill:none;stroke:#000000;stroke-width:1.1279;stroke-miterlimit:10;}
</style>
<g id="XMLID_194_">
	<path id="XMLID_208_" class="st0" d="M1144.9,587.7c1.4-0.6,1.1-2.1,0.1-2.9c-0.5-0.7-1.3-1.1-2.3-0.5c-0.3,0.2-0.6,0.5-0.9,0.7
		c-11,4.6-23,5.8-34.8,6.5c-11.7,0.7-23.4,1.3-34.9,4c-21.1,4.9-40.9,15.3-57,30c-17.6,16.1-28.8,37.2-41.5,56.9
		c-6.9,10.6-14.2,20.6-24.4,28.2c-9.8,7.3-20.4,13.4-30.4,20.5c-13.9,9.8-27.3,22-35.3,37c0.9-4.5,1.8-9,2.7-13.5
		c5.1-24.3,10.9-48.5,16.1-72.9c6.2-29.4,11.3-59.1,15-89c4.5-36.2,6.8-72.6,7.5-109.1c6.4,8.9,16.2,15,23.5,23.2
		c1,1.1,3.2,0.3,3.1-1.3c-0.4-7-0.6-14.2-2.6-21c-1.5-5-3.9-8.9-7.6-12.6c-3-2.9-6.3-5.6-9.7-8.1c16-0.8,31.7-5.3,46.4-11.7
		c19.2-8.3,37.5-19.4,55-30.7c32.2-20.7,63-47.2,76.4-84.2c8.2-22.6,7.1-46.6,5.5-70.2c-0.1-1.9-2.3-2.3-3.4-0.9
		c-10.6,14-18.7,30.1-31.2,42.5c-12.8,12.7-29.9,19.2-45.6,27.3c-2.9,1.5-5.7,3.1-8.4,4.7c16.5-28.1,30.9-57.6,39-89.3
		c3.2-12.3,5.4-24.9,6.3-37.5c0.9-12.1,1.9-25.8-3.1-37.1c-0.5-1.1-2.1-1.1-2.9-0.4c-31.8,27.7-62.9,56.6-88.6,90.2
		c-6.5,8.5-12.6,17.3-18.2,26.4c0.4-3.9,0.9-7.8,1.2-11.7c2-20.6,2.8-41.3,1.5-61.9c-1.5-22.7-5.7-45.3-13.9-66.6
		c-0.6-1.5-2.4-1.7-3.3-0.4c-6.6,8.8-11.8,18.5-16.9,28.3c-5.2,9.9-10.4,19.9-15.4,30c-9.5,19.5-17.6,39.6-22.2,60.8
		c-3.6,16.5-5.2,33.3-5.2,50.2c-4.7-11.6-9.4-23.1-14.2-34.6c-7.5-18.2-15.6-36-26.1-52.7c-5.5-8.8-11.5-17.2-18-25.3
		c-3.3-4.2-6.8-8.3-10.4-12.2c-3.1-3.4-6.2-7.2-10.9-8.5c-1-0.3-2.4,0.6-2.3,1.8c2.7,23.9,5.3,47.8,8,71.7
		c2.5,22.2,4.8,44.6,10.4,66.2c2.3,8.9,5.3,17.5,8.9,25.9c-3.6-3.3-7.2-6.4-11-9.5c-12.7-10.3-26.5-19-41.3-25.9
		c-16.5-7.8-34-13.3-52-16.4c-1.7-0.3-3.2,1.7-1.8,3c24.1,23.9,38.5,55.2,58,82.6c9.7,13.6,20.7,26.2,34.1,36.2
		c14.4,10.8,30.8,18.5,47.6,24.4c8.6,3,17.3,5.6,26.1,8c4.2,1.1,8.4,2.3,12.6,3.6c3.2,1,6.5,2,9.8,2.5c-0.8,0.4-1.5,0.8-2.3,1.3
		c-4.6,2.9-7.4,7.7-10.7,12c-3.8,5-8,9.7-12.4,14.2c-4.2,4.2-8.7,8.3-14.7,9.7c-1.6,0.4-1.6,2.1-0.7,3c0.2,0.3,0.5,0.5,1,0.6
		c19.6,4.4,36.6-7.3,48.7-21.6c-0.6,33.1-2.5,66.2-6.1,99.1c-3.4,30.8-8.4,61.4-14.6,91.7c-5,24.8-10.9,49.3-16.3,74
		c-1.6,7.2-3,14.4-4.4,21.6c-19.5-48.2-13.7-101.7-18.7-152.4c-1.3-13.1-3.7-26.3-10.1-37.9c-5.6-10.2-13.9-18.6-23.1-25.6
		c-8.4-6.3-17.6-11.8-27.2-16c-7.6-3.4-15.5-6-23.2-9.2c-10.7-4.5-21.3-9.6-30.9-16.1c-6.2-4.2-12.3-8.7-18.3-13.2
		c-0.7-0.5-1.4-0.4-1.9,0c-0.4,0.2-0.7,0.5-0.8,0.9c-11.7,18.3-8.3,41.7,0,60.6c8.7,19.8,23.1,36.6,39.3,50.6
		c17.2,15,38.4,25.7,51.4,45c12.4,18.3,18.3,39.8,25.3,60.5c7.5,22.3,17,45.4,35.7,60.7c0.3,0.2,0.6,0.3,0.9,0.4
		c-2.3,12.8-4.3,25.6-5.6,38.5c-1.2,11.7-1.9,23.4-2,35.2c-0.2,20.4,2.8,40.6,7.2,60.5c1.2,5.6,2.6,11.1,4,16.7
		c0.6,2.3,4.1,1.3,3.5-1c-5.7-21.4-10-43.4-10.9-65.6c-0.5-12.7,0.1-25.5,1.1-38.1c0.8-9.5,2-19,3.4-28.5c6.3,2.5,13.4,2.4,20,1.3
		c8.5-1.5,16.8-4.7,24.4-8.7c7-3.7,13.9-8.2,19.4-13.9c1.9-2,3.8-4.2,5.6-6.4c34.1-9.8,67.5-26.4,94.1-50.1
		c5.4-4.8,10.4-9.9,14.9-15.5c5.1-6.3,9.2-13.3,13-20.5c4.8-8.9,9.1-18,14-26.9c4.5-8.1,9.6-15.9,15.2-23.3
		c12.3-16.2,27.3-30.3,44-41.9C1144.1,588,1144.5,587.9,1144.9,587.7z M919.3,438.6c0.2,5.7,0.6,11.5,1.2,17.2
		c-16.7-35.6-28.3-74.1-31.5-113.4c6.9,17.7,13.5,35.6,19.4,53.7C912.9,410.1,917,424.2,919.3,438.6z M944.4,327.6
		c2.6-5.9,5.5-11.7,8.6-17.4c-1.1,8.2-2.4,16.3-3.8,24.4c-1.9,10.7-4.2,21.3-7,31.7c-2.8,10.2-6,20.4-7.4,31
		c-2.5,18.1-0.5,39.4-10,55.6c-0.3-4.9-0.9-9.8-1.7-14.7C921.7,400.4,928.9,362.3,944.4,327.6z M931.2,452.6
		c5.4-8.4,11.5-16.4,17.5-24.4c11.6-15.8,23.2-31.6,36-46.4c9.1-10.6,19-20.6,30.1-29.1c-15.1,24.5-31.5,48.2-46.8,72.6
		c-5.2,8.3-13.2,14.6-21.2,20c-5.8,4-11.9,7.5-18.1,10.9C929.6,455.1,930.4,453.8,931.2,452.6z M927.6,465.6
		c3.6,2.6,7.1,5.3,10.2,8.3c3.5,3.3,5.9,6.7,7.3,11.3c1.5,5.1,2,10.3,2.3,15.6c-7.9-7.6-17.6-13.9-22.6-23.9v-0.1
		c0.1-0.3,0.1-0.6,0-0.9c0.1-3.9,0.1-7.8,0.1-11.7c0.2,0,0.3,0,0.5,0C926.3,464.6,927,465.1,927.6,465.6z M1025.7,345.2
		c15.4-9.5,33-15.2,47.8-25.9c14.5-10.5,23.7-25.7,33.5-40.3c1.5-2.2,3-4.5,4.6-6.6c1.3,19.1,1.9,38.5-3.4,57.1
		c-5.1,17.6-14.8,33.7-26.8,47.5c-12.9,14.8-28.4,27.1-44.7,38c-16.8,11.2-34.3,21.8-52.5,30.6c-17.3,8.4-36.2,14.5-55.5,15
		c6-3.2,11.9-6.7,17.6-10.4c7.6-5,15.1-10.5,20.9-17.5c3.1-3.7,5.4-7.9,8-12c3.2-5,6.4-10.1,9.7-15.1c6.5-10,13.1-20,19.6-30
		c6-9.2,11.9-18.5,17.6-28C1023.3,346.8,1024.5,346,1025.7,345.2z M1016.7,226.8c15.8-16,32.4-31.1,49.3-45.9
		c1.7,4.7,2.2,9.7,2.3,14.7c0.2,5.6,0,11.2-0.4,16.8c-0.7,11-2.5,21.9-5,32.6c-5,21.8-13.2,42.7-23,62.8
		c-6.3,12.8-13.3,25.2-20.6,37.4c-9.7,6.5-18.6,14.1-26.8,22.6c-12.8,13.2-24.1,27.9-35.2,42.6c-6,8-12,16.1-17.9,24.2
		c-2.5,3.4-4.9,6.8-7.3,10.2c3.7-11.4,4.1-24.1,5-36c0.8-11.2,3-21.9,6-32.7c2.9-10.6,5.8-21.1,7.9-31.9c2.8-14.1,4.9-28.3,6.7-42.5
		C973.8,274.2,994.4,249.5,1016.7,226.8z M892,278.7c3.9-21,11.3-41.1,20.3-60.4c5.2-11.1,10.9-21.9,16.5-32.8
		c5.1-9.7,10.2-19.3,16.4-28.3c13.5,37,14.9,76.9,11.8,115.9c-0.7,9.2-1.7,18.4-2.9,27.6c-14.6,25.4-25.3,52.9-30.7,82.1
		c-2.3,12.5-3.7,25.2-4.2,37.8c-1.5-6.2-3.3-12.3-5.2-18.4c-6.1-19.7-13.2-39.1-20.7-58.3c-1.7-4.3-3.4-8.5-5.1-12.8
		C887.7,313.6,888.7,296,892,278.7z M824.6,326.6c-5.3-20.4-7.6-41.3-9.9-62.2c-2.7-23.8-5.3-47.6-8-71.4c2.8,1.7,5,4.6,7.2,7
		c3.1,3.5,6.2,7.1,9.1,10.7c5.8,7.2,11.2,14.7,16.2,22.4c10.4,16.1,18.6,33.2,26,50.9c6.6,15.8,13.2,31.7,19.6,47.6
		c0.9,21.3,4.3,42.5,9.6,63.1c4.8,18.4,11.2,36.3,18.8,53.7c-17.6-23.5-36.3-46-56.3-67.5c-6.5-7-13.1-13.8-19.9-20.4
		C831.8,349.6,827.6,338.3,824.6,326.6z M912.7,453.6c-0.4-0.4-0.8-0.8-1.2-1.1c-3.4-3.2-6.8-6.5-10.2-9.7
		c-6.7-6.5-13.2-13.1-19.6-19.8c-12.7-13.6-24.6-28.1-34.4-43.9c-1.6-2.6-3.1-5.2-4.6-7.8c2.5,2.6,5,5.1,7.4,7.7
		c11.8,12.6,23.5,25.3,34.5,38.6C894.3,429.2,903.6,441.3,912.7,453.6z M901.1,455.8c-8.3-2.6-16.8-4.6-25.1-7.1
		c-17.1-5.3-33.8-12-48.9-21.5c-14.4-9.1-26.6-20.9-37-34.4c-20-26.1-33.8-56.4-55.4-81.3c-1.4-1.6-2.9-3.1-4.3-4.6
		c29.6,6,57.8,18.5,81.8,36.9c7.7,5.8,14.8,12.3,21.7,19c3.6,7.3,7.6,14.5,12.1,21.3c10.8,16.7,23.7,31.9,37.5,46.2
		c7.8,8.1,15.8,15.9,24,23.6c1.9,1.8,3.9,3.6,5.9,5.5C909.1,458.6,904.7,456.9,901.1,455.8z M879.5,500.5c2.5-1.4,4.8-3.2,6.9-5.1
		c4.3-4,8.3-8.4,12-12.9c3.6-4.3,6.6-9.3,10.5-13.2c2.3-2.3,5.9-4.7,9.5-5.3c0.4,0.3,0.7,0.6,1.1,0.8c0.6,0.4,1.3,0.6,1.9,0.7
		c0,3.4,0,6.9-0.1,10.3C911.4,488.9,896.6,501.3,879.5,500.5z M824.4,660.7c-5.2-9.3-11.8-17.8-19.8-24.8
		c-8.8-7.7-18.7-13.9-27.9-21.1c-16.5-13-31.7-28.1-42.3-46.4c-10.6-18.5-17.7-43.2-8.1-63.3c2.3,18,7.2,35.9,21.2,48.5
		c7.9,7.1,17.5,12.1,26.9,17c10.2,5.4,20.6,10.5,30.4,16.6c17.6,10.9,33.9,25.6,40.5,45.9c3.5,10.8,4.3,22.2,3.8,33.4
		c-0.3,7.8-0.9,15.6-0.9,23.4c0,14,0.7,28.7,3.6,42.7C842.1,708.9,836.7,682.6,824.4,660.7z M860.8,750.5c0-0.1,0-0.1,0-0.2
		c-6.8-17.3-8.4-36.4-8.8-54.8c-0.4-18.3,2.7-36.7-0.9-54.8c-4-20.5-16.8-36.8-33.2-49.2c-9-6.8-18.9-12.3-28.8-17.5
		c-9.8-5.2-19.9-9.9-29.2-15.9c-10.1-6.4-18-14.8-23-25.7c-4.2-9.2-5.9-19.4-7.1-29.4c4,2.9,7.9,5.9,12,8.7
		c8.3,5.8,17.1,10.6,26.4,14.9c8.2,3.8,16.6,6.9,25,10.2c8.9,3.5,17.2,7.9,25.2,13c10,6.5,19.4,14.3,26.2,24.2
		c7.3,10.7,10.7,23.2,12.3,36c3.4,26.3,2.8,53.1,4.4,79.6c1.6,27.6,5.3,55.4,15.9,81.1C870.5,764.7,865.2,757.9,860.8,750.5z
		 M930.4,778.3c-7.9,5.3-16.8,9.5-26,12.1c-7.6,2.1-16.6,3.4-24.1,0.2c2.4-22.9,19.4-40.8,37.2-53.9c9.6-7.1,19.9-13.2,29.7-20
		c5-3.5,9.9-7.3,14.2-11.7c4.1-4.3,7.7-9.1,11-13.9c13.3-19.5,23.8-41.1,40.5-58.1c15.1-15.4,34.3-26.7,55-32.5
		c-10.9,6.7-21.5,13.8-31.3,22c-15.3,12.9-28.2,28.3-38.4,45.4c-12,20.4-21.2,42.2-31.9,63.2c-5.1,10-10.7,19.8-17.5,28.9
		c-0.9,1.2-1.8,2.3-2.8,3.5c-0.3,0.2-0.4,0.4-0.6,0.7C941.1,769.5,936.3,774.4,930.4,778.3z M1102.7,620.5
		c-5.8,6.9-11.1,14.1-15.9,21.7c-5.2,8.3-9.7,17-14.1,25.7c-4.3,8.5-8.6,17.1-13.9,25c-3.9,5.7-8.4,10.8-13.3,15.6
		c-11.8,11.7-25.5,21.4-39.9,29.6c-16.9,9.7-34.8,17.5-53.4,23.3c3.6-4.9,6.8-9.9,9.9-15.1c12-20.5,21-42.8,32.1-63.8
		c10.1-19.1,22.2-36.7,38.1-51.5c14-13.1,30.2-23.4,46.6-33.1c9.2-1.5,18.4-2.1,27.7-2.7c8.7-0.5,17.5-1.3,25.9-3.4
		C1121.7,600.3,1111.6,609.9,1102.7,620.5z"/>
	<path id="XMLID_205_" class="st0" d="M1156,420.9c0.8,1.5,2.1,2.8,3.6,3.7c3.1,1.6,7,1.2,9.6-1.1c2.6-2.2,3.2-6,1.8-9.1
		c-1.5-3.4-5.3-4.7-8.7-3.9c-2.3,0.5-4.1,2-5.4,3.9c-0.2,0-0.3-0.1-0.5-0.1c-1,0-1.8,0.8-1.8,1.8s0.2,2,0.5,2.9
		C1155.2,419.7,1155.4,420.4,1156,420.9z M1159.9,416.5c0.4-0.6,0.5-0.7,1-1.2c0.4-0.4,0.8-0.6,1.4-1c0.1,0,0.1-0.1,0.1-0.1
		s0,0,0.1,0s0.2-0.1,0.3-0.1c0.3-0.1,0.5-0.1,0.8-0.2c0.1,0,0.3,0,0.3,0c0.1,0,0.2,0,0.4,0c0.2,0,0.4,0,0.5,0s0.1,0,0.1,0s0,0,0.1,0
		c0.3,0.1,0.6,0.1,0.9,0.2c0.1,0,0.1,0,0.1,0s0,0,0.1,0.1s0.2,0.1,0.3,0.2l0.3,0.2c0.1,0.1,0.1,0.1,0.2,0.2s0.2,0.2,0.3,0.4
		c0,0,0.1,0,0.1,0.1c0,0,0,0,0,0.1c0.1,0.2,0.3,0.5,0.4,0.7l0,0l0,0c0,0.1,0.1,0.3,0.1,0.4s0.1,0.3,0.1,0.4c0,0,0,0.1,0,0.2
		c0,0.3,0,0.6,0,0.9c0,0,0,0.2,0,0.3c0,0.1,0,0.3,0,0.2c-0.1,0.3-0.1,0.5-0.2,0.8c0,0.1,0,0,0,0.1l0,0c-0.1,0.1-0.1,0.2-0.2,0.4
		c-0.1,0.1-0.1,0.2-0.2,0.3l-0.1,0.1c0,0,0,0-0.1,0.1c-0.2,0.2-0.4,0.4-0.6,0.6c0,0,0,0-0.1,0c-0.1,0.1-0.3,0.2-0.4,0.3
		c-0.1,0.1-0.2,0.1-0.3,0.2c0,0-0.2,0.1-0.3,0.1c-0.3,0.1-0.6,0.2-0.9,0.3c-0.1,0-0.2,0-0.3,0.1c-0.1,0-0.1,0-0.1,0s0,0-0.1,0
		c-0.3,0-0.6,0-0.9,0c-0.1,0-0.2,0-0.3,0c-0.1,0-0.1,0-0.1,0s0,0-0.1,0c-0.3-0.1-0.7-0.2-1-0.3h-0.1c-0.2-0.1-0.3-0.2-0.5-0.3
		c-0.1-0.1-0.3-0.2-0.4-0.2c0,0-0.2-0.1-0.2-0.2c-0.3-0.2-0.5-0.4-0.7-0.7c-0.1-0.1-0.2-0.2-0.3-0.3c0,0-0.2-0.2-0.2-0.3
		c-0.2-0.3-0.3-0.5-0.4-0.8c0.1-0.2,0.1-0.5,0.2-0.7C1159.3,417.5,1159.5,417.1,1159.9,416.5z"/>
	<path id="XMLID_201_" class="st0" d="M763.3,662.7c-0.1-1.7-0.6-3.5-1.6-4.9c-2-2.8-5.7-4.2-9.1-3.4c-3.3,0.8-5.6,3.9-5.7,7.3
		c-0.2,3.7,2.6,6.6,6,7.4c2.3,0.6,4.6,0.1,6.5-1c0.1,0.1,0.2,0.2,0.4,0.3c0.9,0.4,2,0.1,2.4-0.8c0.4-0.9,0.7-1.8,0.9-2.8
		C763.6,664.1,763.7,663.3,763.3,662.7z M753.8,657.9C753.6,657.9,753.7,657.9,753.8,657.9L753.8,657.9z M756.4,665.5
		c-0.5,0.2-1,0.2-1.7,0.2c-0.1,0-0.1,0-0.1,0s0,0-0.1,0s-0.2,0-0.4-0.1c-0.3,0-0.5-0.1-0.8-0.2c-0.1,0-0.3-0.1-0.3-0.1
		c-0.1-0.1-0.2-0.1-0.3-0.2c-0.2-0.1-0.3-0.2-0.5-0.3c-0.1,0-0.1,0-0.1-0.1c0,0,0,0-0.1-0.1c-0.2-0.2-0.4-0.4-0.7-0.6
		c-0.1-0.1-0.1-0.1-0.1-0.1s0,0-0.1-0.1s-0.1-0.2-0.2-0.3c0,0-0.1-0.3-0.2-0.3c0-0.1-0.1-0.2-0.1-0.2c-0.1-0.2-0.1-0.3-0.1-0.5
		c0-0.1,0-0.1,0-0.1s0,0,0-0.1c0-0.3,0-0.5,0-0.8c0,0,0,0,0-0.1l0,0c0-0.1,0-0.3,0.1-0.4c0-0.1,0.1-0.3,0.1-0.4c0,0,0-0.1,0.1-0.2
		c0.1-0.3,0.2-0.6,0.4-0.8c0,0,0.1-0.1,0.1-0.2c0.1-0.1,0.1-0.2,0.1-0.2c0.2-0.2,0.4-0.4,0.6-0.6c0,0,0,0,0.1-0.1l0,0
		c0.1-0.1,0.2-0.2,0.3-0.2c0.1-0.1,0.2-0.1,0.3-0.2l0.1-0.1c0,0,0,0,0.1-0.1c0.3-0.1,0.5-0.2,0.8-0.3c0,0,0,0,0.1,0
		c0.2,0,0.3,0,0.5-0.1c0.1,0,0.2,0,0.3,0c0,0,0.2,0,0.3,0c0.3,0,0.6,0.1,0.9,0.2c0.1,0,0.2,0.1,0.3,0.1s0.1,0,0.1,0s0,0,0.1,0
		c0.3,0.1,0.5,0.2,0.8,0.4c0.1,0.1,0.2,0.1,0.3,0.2c0.1,0,0.1,0,0.1,0s0,0,0.1,0.1c0.3,0.2,0.5,0.4,0.8,0.7c0,0,0,0,0.1,0.1
		s0.2,0.3,0.3,0.5c0.1,0.1,0.2,0.3,0.2,0.4c0,0,0.1,0.2,0.1,0.3c0.1,0.3,0.2,0.6,0.3,0.9c0,0.1,0.1,0.3,0.1,0.4v0.3
		c0,0.3,0,0.6,0,0.9c-0.2,0.2-0.3,0.4-0.5,0.6c-0.4,0.4-0.8,0.7-1.4,1.1C757.3,665.2,757.1,665.3,756.4,665.5z"/>
	<path id="XMLID_195_" class="st0" d="M1200.4,636.6c-2.1-1.4-5.2-2.1-7.7-2.7c-2.7-0.7-5.5-1.1-8.3-1.4c-5.3-0.5-10.7-0.1-15.9,1.1
		c-0.5-9.8-3.7-19.5-9.3-27.6c-1.2-1.8-3.4-4.4-5.6-2.4c-1.7,1.4-1.5,4.8-1.5,6.8c0,5,1.1,9.9,3.2,14.4c0.9,1.9,1.9,3.6,3.1,5.3
		c-1.1-0.6-2.2-1.2-3.4-1.8c-2.2-1.1-4.4-2.1-6.7-3c-2-0.8-4.2-1.6-6.3-0.9c-3.7,1.2-4.7,6-2.9,9.1c2.1,3.7,6.8,5.2,10.7,5.9
		c5,1,10.1,0.7,14.9-0.7c-0.1,4.2,0.7,8.5,2.3,12.4c1.5,3.7,3.9,8.1,7.6,10c3.2,1.7,8,1,9.5-2.7c0.9-2.2,0.1-4.5-1.2-6.4
		c-1.3-1.9-2.9-3.7-4.4-5.5c-1.2-1.5-2.5-2.8-3.8-4.2c5.9,2.2,12.3,2.8,18.5,1.6c2.3-0.4,4.8-1.1,6.8-2.2
		C1202.2,640.6,1202.4,638,1200.4,636.6z M1155.8,607.7c0.3,0.4,0.6,0.7,0.7,0.8c0.8,1.2,1.6,2.5,2.3,3.8c1.4,2.5,2.6,5.1,3.5,7.9
		c1.3,3.8,2.1,7.8,2.5,11.8C1158.3,625.8,1155,616.6,1155.8,607.7z M1150.1,635.8c-2.9-0.6-8.8-2.2-8.2-6.2c0.3-2.2,2.4-1.9,4-1.4
		c2.3,0.8,4.5,1.9,6.6,3c3,1.5,6,3.1,8.9,4.7C1157.7,636.6,1153.8,636.6,1150.1,635.8z M1180.3,654.9c0.6,1.1,0.8,2.4-0.4,3.2
		c-1.1,0.7-2.4,0.6-3.4,0c-2.9-1.5-4.7-5.1-5.9-7.9c-1.2-2.9-1.9-6-2.1-9.1c1.5,1.5,3.1,3,4.5,4.6c1.3,1.5,2.6,3,3.9,4.5
		C1178,651.7,1179.4,653.2,1180.3,654.9z M1171.3,636.8c4.1-0.7,8.3-0.9,12.5-0.6c2.9,0.2,5.7,0.7,8.5,1.4c1.4,0.4,2.7,0.8,4.1,1.2
		c0.1,0,0.4,0.2,0.7,0.3c-0.1,0-0.1,0.1-0.2,0.1C1188.5,642.3,1178.9,641.3,1171.3,636.8z"/>
</g>
</svg>
