<?xml version="1.0" encoding="utf-8"?>
<!-- Generator: Adobe Illustrator 19.0.0, SVG Export Plug-In . SVG Version: 6.00 Build 0)  -->
<svg version="1.1" id="Layer_1" xmlns="http://www.w3.org/2000/svg" xmlns:xlink="http://www.w3.org/1999/xlink" x="0px" y="0px"
	 viewBox="0 0 1920 1080" style="enable-background:new 0 0 1920 1080;" xml:space="preserve">
<style type="text/css">
	.st0{fill:none;stroke:#000000;stroke-width:1.1279;stroke-miterlimit:10;}
</style>
<g id="OBJECTS">
	<g id="XMLID_156_">
		<path id="XMLID_173_" class="st0" d="M1191.1,543.2L1191.1,543.2c0-0.4-0.1-0.7-0.3-1c-0.5-1.8-3.6-1.7-3.5,0.5c0,0,0,0,0,0.1
			c-48.7,52.7-99.6,5.8-142.1,58.2c-18.4,20.6-38.1,40.3-61.1,55.9c-22.8,16.7-51.4,25.7-69.2,48.6c-8.3,10-15,20.7-20.2,32.6
			c-1.3,2.7-8,19.8-11.8,32.6c0.1-47.2,3.3-94.2,14.7-140c10.7-38,25-75,35.4-113.1c0.4-1.6,0.8-3.1,1.2-4.7c0.1-0.4,0-0.7-0.1-1.1
			c0-0.2,0.1-0.3,0.1-0.5c1,21.5,4.2,42.6,12.2,62.5c15.6,36.2,62.6,46.5,86,11.7c13-16,26.5-31.7,42.9-44.4
			c15.9-12.4,36.3-21.3,43.4-41.6c9-24.7,5.3-43-6.2-56c10-4.4,19.7-9.9,28.8-16.5c28.5-19.6,47.3-61.9,23.5-92
			c-14.2-17.3-37.2-22.5-55.7-33.7c-29.8-23.1-49.4-53.8-93-45.2c-8.3,1.5-16,4.4-22.9,8.5c-1.1-8.9-3.4-17.7-7.2-26.3
			c-11.7-24.1-41.9-43-68.4-31.4c-18.9,8.4-29.5,27.9-47.2,38.2c-17.5,10.4-38.9,14.8-53.4,29.9c-21.7,29.9-18.7,61.1-2.8,88.4
			c-15.9-4.9-30.2-1.3-37,21.2c-2.2,20-0.3,40.8-13.8,57.7c-3.7,7.5-5.8,16.1-6.3,25.3c-0.8,2.8-1,4.9-0.1,5.3
			c0.2,48.5,39.2,109.3,83.6,114c38.4,0.8,65.2-17,80.9-43.5c-16,51.1-36.1,101.3-39.2,155.4c-2,27.6-2.7,55.2-2.7,82.8
			c-8.5-29.5-26.2-56.5-40.1-84c-20.5-67.2-22.8-134.2-104.1-155.8c-7.8,9.9,5.5,38.6,11.8,58.1c0,0.1-0.1,0.2-0.1,0.3
			c0.8,3.5,1.7,6.8,2.7,10c0.1,0.5,0.2,1.1,0.3,1.6c10,41.8,11.7,86.8,33.3,124.9c22.5,39.9,67,58.8,96.6,92.3
			c0.5,20.2,1.1,40.4,1.8,60.5c0.3,4.5-0.2,19,4.3,12.2c-0.6-24.6-1.7-49.4-2.5-74.2c1.3-10.7,0.9-21-0.8-30.9
			c-0.1-3.8-0.1-7.7-0.2-11.5c7.7-8.8,16.9-15.4,28.2-18.9c50.2-8.4,66.8-26.6,92.5-68.2c39.5-45.7,112.2-32.3,153.7-75.3
			c20.7-20.4,33.2-49,33.5-78.1c0.1-0.2,0.2-0.5,0.2-0.7C1191.1,543.5,1191.1,543.4,1191.1,543.2z M910.7,421.3
			c-0.1-1-0.1-1.9,0-2.9c-0.1,0.2,0.4-1.6,0.5-1.8c0.2-0.5,0.5-0.9,0.8-1.3c0.1-0.1,0.1-0.2,0.2-0.2c0.5-0.5,0.6-0.6,1.4-1
			c2.8-0.2,5.4,0.9,7.7,2.9c0.4,8.1,2.5,16,7.5,22.3c-0.2,0-0.3-0.1-0.5-0.1c-2.9-1.3-5.8-2.7-8.6-4.2
			C915.2,431.6,911.8,427.1,910.7,421.3z M945.3,343.6c9.7-26.6,21.4-56.6,45.2-73.2c0.6,7.8,0.3,15.6-1.3,23
			c-6.5,37-18.4,73.3-34.6,107.4c-3.8-15.7-23.9-7.5-21.3,26.4c-2.8-5.2-5.8-9.1-8.7-11.7C923.4,391.9,939.3,365.1,945.3,343.6z
			 M961.4,431.8c3.5-0.3,7,0.3,10.3,2.4c5,7.4-1.3,12.2-8.5,13.8c-6.9-1.5-13.6-3.2-20.2-5c1.5-1.9,3.3-3.7,5.3-5.3
			C952.6,435.4,956.9,433.5,961.4,431.8z M969.4,428.9c25-8.1,52.1-9.8,78.2-6.7c23.7,1.6,44.9,8.5,58.4,20.3
			c-41.7,16.8-90.4,15.9-135.4,7C980.1,444.5,977.8,432.9,969.4,428.9z M934,439.2c-4.7-5.5-7.4-11.5-8.6-17.8
			c3.7,5,6.5,11.8,8.7,17.7C934.1,439.1,934,439.2,934,439.2z M938.8,438.5C938.8,438.5,938.8,438.4,938.8,438.5
			c3.5-5.8,6.9-11.7,10-17.6c-1.9,5.5-4.5,10.8-7.2,15.9C940.7,437.3,939.7,437.9,938.8,438.5z M938,432.6c-1.6-12.1-2.6-28,6.5-35
			c2.1-2,5.3-1.6,6.2,1.2c0.7,2.8,0.9,5.6,0.8,8.5C947.3,415.9,942.7,424.3,938,432.6z M1039.3,571.5c-4.5,5.4-9.1,11.5-14.2,16.8
			c12.5-20.9,14.6-50.7,37.5-66.3c13.9-13.6,35.6-10.8,50.9-20.6c-1.8,3.5-3.8,7.1-6.3,10.8C1084.8,532.1,1057.5,546.7,1039.3,571.5
			z M1116.6,494.6c-0.2,0.1-0.5,0.2-0.7,0.5c-6.2,7-15.5,8.4-24.3,10.1c-34.4,5.3-54.4,36.7-63.8,67.6c-3.4,9.9-7.1,21.3-16.9,26.5
			c-0.3,0.2-0.5,0.4-0.7,0.7c-3.4,1.7-7,3-11,3.6c-58.3-0.4-61.9-64.9-61.5-115.4c0.4-6.2,0.5-12.5,0.2-18.9c0-3.7,0.1-7.3,0-10.7
			c-0.3-1.4,0.4-6.2,0.7-10.5c10.4,3.3,18.3,4.1,24.2,3.5c48.2,10.6,100.7,12.2,145.8-6.5C1120.6,457.2,1124.8,473.8,1116.6,494.6z
			 M1151.1,413.7c2.1-13.4,2.3-27.2-5.7-38.7c11.9-7.3,11.1-33.6,7.8-45.8C1178,350.9,1179.7,383.8,1151.1,413.7z M1002.9,263.6
			c62.4-22.4,73.8,28.5,119.9,48.7c9.8,3.3,18.2,7.6,25.2,12.7c-0.1,0.2-0.1,0.3-0.2,0.5c6,14.4,7.6,35.9-5.3,46.9
			c-1.3,0-2.5,1.3-1.6,2.6c4.5,6.2,7.6,14.3,8.1,22c1,2.1-2.3,15-2.3,20.8c-11.3,9.7-23.6,17.3-36.8,23
			c-30-29.2-101.8-28.7-147.7-13.2c-3.9,0.2-8.4,1.7-13.3,5.3c-0.5,0.2-1,0.4-1.4,0.7c5-10.4,7.2-18.9,7.6-25.3
			c4.9-10,9.3-20.1,13.4-30.4c12.1-34.1,28.2-72.6,25.1-109.4C996.6,266.6,999.6,265,1002.9,263.6z M811.8,288.4
			c14.6-28.1,50.8-29.1,72.6-49.2c14.1-12.4,26.3-30.4,46.6-32.2c34.3-1.6,55.1,28.2,59.1,59.5c-11.1,7.3-20.2,17.6-27.3,29.2
			c-18.1,32.8-30.4,69.3-40.3,105.3c-0.7,3.8-1.2,7.8-1.3,11.9c-10.8-6.7-19.3,1.9-10.5,17.2c-13.9-8.2-26.7-18-39.2-28.2
			c-12.1-10.7-32.7-28.9-52-36.7C805.5,342.4,800.5,316.1,811.8,288.4z M908.9,433.3c-33-12-67-34.8-86.6-63.7
			c14.1,6.8,27.8,19.7,37.8,27.6C862.7,400.1,889.5,421,908.9,433.3z M776,426.5c6.7-16.6-0.6-36.5,9.1-52.1
			c0.3-0.3,0.6-0.6,0.9-0.9c11.5,32.4,6.8,55.4-20.3,77.8c-0.7,0.3-1.7,1.5-2.7,3.1C765.5,445.1,769.8,435.9,776,426.5z
			 M910.7,552.9c-49.3,53.6-113.5,31.2-138-32.9c-8.7-17.7-13.1-34.2-12.1-50.5c7.4-28,41.1-33.1,34.6-71.8
			c-0.3-2.5-3.4-21.9-6.6-26.6c8.6-7.2,18.3-7.3,28-3.9c23.2,36.6,69.2,65.7,108.6,75.1c2.5,1.2,5.1,2.3,7.4,3.2
			c1.5,21.3,2.7,44.6-1.8,66.1c0,0.1-0.1,0.2-0.1,0.3c-1.2,4.6-2.5,9.1-3.8,13.6C923.4,535.4,918.2,544.7,910.7,552.9z M833.9,692.5
			c13.6,31.6,35,61.1,43.5,94.2c0,0.2,0.1,0.5,0.2,0.7c0.9,3.5,1.6,7,2.2,10.5c0,5.2,0.1,10.4,0.2,15.6c-7.8-16.3-25-28.1-32.7-44.8
			c-12.4-23.5-16.9-50.7-32.4-72.6c-16.3-22.9-40.5-39.8-52.2-65.9c-2.4-2.2-7.4-21-11.2-28.8c-5.6-18.4-14-36.2-14.5-55.5
			C809.8,565.7,817.3,629.6,833.9,692.5z M790.9,741.5c-22-33.4-25.9-74.4-33.3-112.9c16.5,32.5,43.9,50.5,62.9,84.3
			c13.4,32.4,22.9,66.6,49.3,91.4c4.3,5.5,8.2,11.6,9.7,18.5C852,793.5,813.3,775.6,790.9,741.5z M1007,688.9
			c-19.5,21.2-29.6,51.7-58.6,62.8c-20.9,9.2-46.3,7.8-63.1,25.4c-0.1,0.1-0.3,0.3-0.4,0.4c25.1-107.2,93-90.1,157.2-167.8
			c43.3-58.8,91.2-11.7,141.7-58.5c0.2-0.2,0.4-0.4,0.6-0.6c-17.9,39.2-62.2,61.5-100.8,76.1c-33.3,8.8-57.7,33.1-75.7,61.4l0,0
			C1007.6,688.4,1007.3,688.6,1007,688.9z M1126.5,639.7c-35.1,16.9-77.9,18.3-109.8,41.3c30.6-45.7,65.4-45.9,112.4-70.9
			c21.8-14,45.7-30.9,57.4-54.6C1182.3,591.2,1159.3,624.3,1126.5,639.7z"/>
		<path id="XMLID_169_" class="st0" d="M739.5,368.7c-1.5-2.1-4.1-3.3-6.7-2.7c-0.6,0.2-1,0.5-1.2,1c-0.8-0.2-1.7,0-2.1,1.2
			C725.7,380.5,744.9,379.8,739.5,368.7z M737,372.2L737,372.2C737,372,737,372,737,372.2z M734.2,373.7c0.8,0.1-0.3,0-0.4-0.2
			c0.6,0.2,0.1,0-0.1-0.1c-0.1-0.1-0.1-0.1-0.2-0.2c-0.1-0.1-0.2-0.3-0.3-0.5c-0.3-1-0.3-1.6-0.2-2.9c0.1-0.1,0.1-0.2,0.1-0.4
			c0.3,0.1,0.5,0,0.8-0.1c0.2,0,0.4,0,0.6,0c0.2,0,0.5,0.1,0.7,0.2s0.4,0.2,0.6,0.4c0.1,0.1,0.5,0.4,0.6,0.6
			c0.1,0.1,0.3,0.4,0.3,0.6c0.1,0.2,0.1,0.4,0.1,0.6s0,0.3,0,0.5c0,0.1-0.1,0.2-0.1,0.3c-0.1,0.1-0.1,0.2-0.2,0.3
			c-0.1,0.1-0.3,0.3-0.4,0.4l0,0c-0.2,0.1-0.3,0.2-0.5,0.3c-0.1,0-0.4,0.1-0.6,0.2C735,373.7,734.4,373.8,734.2,373.7z"/>
		<path id="XMLID_163_" class="st0" d="M1025.3,202.9c-0.1,5.6,6.4,13.5,10.8,15.4c5.5,2.3,10.7-4.6,5.7-8.7c-0.7-0.6-3.4-3-6.5-5.4
			c6.6,0.7,13.5-0.9,18.4-5.2c4.2-8-17.1-5.3-26-1.7c-2.5-8.2-9.6-23-16.5-20.4c-1.8,6.3,1.3,13.1,5.9,18.2
			C994.9,189.6,1000.7,213.4,1025.3,202.9z M1040.3,213.9c-2.6,3.7-6.9-2-8.4-4.3c-1.2-1-1.7-3-2.2-4.9
			C1033.7,207.3,1038,210,1040.3,213.9z M1049.1,197.9c-5.3,2.9-11.7,3.6-17.6,1.9C1037.1,197.8,1043.2,197.2,1049.1,197.9z
			 M1023.8,196.3c-5-3.7-8.5-10.1-9.4-15.3C1018.7,185.3,1021.9,190.6,1023.8,196.3z M1009.3,197.7c1.4-0.3,6.9,1.8,11.7,3.2
			c-2.2,0.8-4.6,1.2-6.9,1.2c-2.1,0-6.8-0.1-7.1-3C1006.9,197.6,1008.2,197.5,1009.3,197.7z"/>
		<path id="XMLID_157_" class="st0" d="M1156.1,732.1c-0.5,0.1-1.8,0.3-3.3,0.6c3.3-3.2,5.8-7.3,7.1-11.7c2-3.6,0.5-10.8-4.4-6.6
			c-2.8,0.5-10.5,12.6-12.9,19.6c-7.9-3.5-22.5-7.5-26.2-0.9c3.4,5.7,10.8,7.8,17.9,7.5c-19.4,13.8,3.3,24.1,11-1.1
			c5.7,3,13.2,4.7,19.1,1.5C1171.8,734.3,1163.3,728.9,1156.1,732.1z M1156.8,718.2c-0.6,3.3-2,6.4-4,9.1c-1.6,2.2-3.6,4.1-5.9,5.6
			C1149.1,727.2,1152.6,721.9,1156.8,718.2z M1121.7,733.7c5.9-0.5,11.9,0.5,17.4,2.7C1133.2,737.9,1126.9,736.8,1121.7,733.7z
			 M1133.6,750.8c-1.3,0.9-4,0.8-3.8-1.2c1.4-2.4,4.4-3.6,6.5-5.4c1.5-1.1,3.1-2.1,4.7-3.1C1139.6,745,1137.1,748.6,1133.6,750.8z
			 M1148.9,737.2C1171.4,730.2,1165.3,743.7,1148.9,737.2L1148.9,737.2z"/>
	</g>
</g>
</svg>
