<?xml version="1.0" encoding="utf-8"?>
<!-- Generator: Adobe Illustrator 19.0.0, SVG Export Plug-In . SVG Version: 6.00 Build 0)  -->
<svg version="1.1" id="Layer_1" xmlns="http://www.w3.org/2000/svg" xmlns:xlink="http://www.w3.org/1999/xlink" x="0px" y="0px"
	 viewBox="0 0 1920 1080" style="enable-background:new 0 0 1920 1080;" xml:space="preserve">
<style type="text/css">
	.st0{fill:none;stroke:#000000;stroke-width:1.2245;stroke-miterlimit:10;}
</style>
<g id="XMLID_124_">
	<path id="XMLID_150_" class="st0" d="M759.4,658.7c-5.8,0.1-11.7,1.7-17.1,3.8c-5.2,2-10,4.8-14.4,8.1
		c-4.8-8.9-11.9-16.5-20.5-21.9c-2.1-1.3-5.6-3.8-7.7-1.3c-1.8,2.1,0.3,5.9,1.3,8c2.2,4.7,5.5,9,9.4,12.3c1.8,1.6,3.9,2.9,5.9,4.1
		c-1.8-0.1-3.7-0.2-5.5-0.2c-2.7,0-5.4-0.1-8.1,0.2c-2.1,0.2-4.2,0.8-5.6,2.4c-2.9,3.4-0.8,8.5,2.8,10.4c4.1,2.1,9.4,1.2,13.6,0
		c4.9-1.4,9.3-3.9,13.1-7.3c1.7,3.8,4,7.2,6.9,10.1c3.2,3.2,7.5,6.5,12.1,7.2c2.4,0.4,4.8-0.1,6.7-1.7c1.7-1.4,2.7-3.7,2.3-5.9
		c-0.4-2.1-2-3.7-3.7-4.8c-2.2-1.4-4.6-2.4-6.9-3.5c-1.9-0.9-3.9-1.7-5.9-2.5c7-0.6,13.8-3.1,19.5-7.4c1.9-1.5,4.6-3.4,5.6-5.7
		C764.5,660.4,761.9,658.7,759.4,658.7z M706.3,656.9c-1.1-1.8-2.1-3.8-2.8-5.8c0,0,0,0,0-0.1c1,0.6,2.1,1.2,3.1,1.9
		c4,2.6,7.6,5.8,10.8,9.4c2.3,2.6,4.3,5.5,6.1,8.5C716.4,668.3,710.2,663.4,706.3,656.9z M711.9,681.1c-3.3,0.9-10,2.4-11.8-1.7
		c-0.8-2,0.4-3.1,2.3-3.4c2.5-0.5,5.2-0.3,7.7-0.3c4,0,8,0.2,12,0.5C719,678.4,715.6,680.1,711.9,681.1z M744.3,683.3
		c1.7,0.8,3.6,1.6,5.2,2.7c1.1,0.8,1.8,1.9,1.1,3.2c-0.9,1.5-2.6,1.9-4.2,1.7c-3.5-0.6-7-3.3-9.5-5.7c-2.2-2.1-4.1-4.6-5.6-7.3
		c2.4,0.9,4.7,1.8,7.1,2.8C740.3,681.4,742.3,682.3,744.3,683.3z M732.2,672.4c3.6-2.6,7.6-4.7,11.8-6.3c2.7-1,5.6-1.9,8.4-2.5
		c1.6-0.3,3.1-0.6,4.7-0.8c0.3,0,0.9,0,1.4,0C751.7,669.8,741.8,673.3,732.2,672.4z"/>
	<path id="XMLID_144_" class="st0" d="M1105.3,452.3c4.8,2.6,10.2,4.1,15.6,4.4c2.4,0.1,4.8-0.1,7.2-0.4c-1.1,0.8-2.3,1.6-3.4,2.4
		c-2.1,1.6-4.2,3.2-6.3,4.9c-1.7,1.4-3.5,3.1-3.9,5.4c-1,4.5,3.6,8,7.8,7.6c4.8-0.5,8.5-4.5,11.2-8.1c3.1-4.1,5.2-8.9,6.1-14
		c4.1,2.2,8.6,3.5,13.2,3.9c4.3,0.4,9.7,0.2,13.4-2.3c3.3-2.3,5-7.4,1.9-10.7c-3.3-3.5-9.2-1.4-13.2-0.5c-2.3,0.5-4.5,1.1-6.8,1.7
		c5.2-4.7,9.1-11,10.8-17.8c0.6-2.3,1.5-5.4,1-7.7c-0.2-1.2-1.1-2.2-2.3-2.5c-1.6-0.4-2.9,0.7-4.1,1.6c-4.3,3.8-8,8.4-10.9,13.2
		c-2.8,4.6-4.9,9.7-6.2,14.9c-9.9-4.4-20.9-6.1-31.6-4.6c-2.1,0.3-5,0.9-4.8,3.7C1100.3,449.9,1103.4,451.3,1105.3,452.3z
		 M1132,463.6c-1.9,3.1-4.5,6.5-7.7,8.2c-1.3,0.7-2.9,1.1-4.3,0.5c-1.1-0.5-2-1.6-1.4-2.9c0.7-1.6,2.5-2.8,3.7-3.8
		c1.7-1.4,3.4-2.7,5.2-4c2.5-1.9,5.1-3.6,7.8-5.4C1134.5,458.8,1133.5,461.3,1132,463.6z M1162,447.4c1.8-0.2,3.9,0.1,3.8,2.3
		c-0.2,4.6-7.2,4.8-10.5,4.8c-4,0-8-0.9-11.7-2.5c3.6-1.1,7.2-2.2,10.8-3C1157,448.4,1159.5,447.7,1162,447.4z M1152.2,427.3
		c0.8-0.9,1.6-1.7,2.4-2.6c0.4-0.4,0.8-0.8,1.3-1.2l0.1-0.1c0,0.1,0,0.3,0,0.4c-0.1,0.5-0.1,1-0.2,1.5c-0.2,1.1-0.5,2.3-0.8,3.4
		c-1.2,4.2-3.3,8.1-6,11.5c-2.3,2.8-5,5.1-8,7C1143.3,439.8,1147.1,433,1152.2,427.3z M1111.1,447.1c3.1-0.1,6.2,0.1,9.2,0.5
		c4.4,0.6,8.7,1.8,12.9,3.5c-9.2,3.1-19.6,1.8-27.8-3.4c0.4-0.1,0.9-0.2,1.2-0.3C1108,447.3,1109.6,447.2,1111.1,447.1z"/>
	<path id="XMLID_131_" class="st0" d="M1223.8,611.2c-0.4-0.9-1.9-1.3-2.7-0.7c-11.4,8.3-23.8,15-37.3,19.3
		c-9.3,3-19.4,3.9-28.4,7.5c-5.3,2.1-10.3,4.8-15.4,7.4c-18.4-0.8-36.6-1.8-54.7,2.4c-16.3,3.7-31.9,10.6-45.8,19.9
		c-8.9,6-17.1,13.1-24.4,21c-0.4,0.3-0.8,0.6-1.2,1c-0.4,0.3-0.5,0.7-0.6,1c-3.3,3.7-6.4,7.6-9.3,11.7c-3.9,5.6-7.3,11.4-10,17.6
		c-2.4,5.7-4.5,11.5-7,17.1c-6.2,14.2-14.9,26.9-28.8,34.1c-3.9-40.5-5.8-81.1-5.5-121.8c0.2-42.6,2.7-85.1,7.4-127.4
		c3.5-31.5,8.4-63,14.5-94.1l0,0c0.6-1.1,1.1-2.2,1.6-3.4c3.7-6.3,9.9-10,17-12.2c8-2.4,16.3-3.9,24.2-6.8c1.5-0.6,3-1.2,4.5-1.8
		c0.1,0,0.1,0,0.2,0c0.4-0.1,0.8-0.3,1.2-0.5c16-6.8,30.6-16.8,42.6-29.3c3.7-3.8,7.1-7.9,10.3-12.1c3.4-4.5,7-9.3,8.2-14.9
		c0.1-0.7,0-1.5-0.5-1.9c-3.1-2.6-6.7-2.1-10.2-0.6c-5,2.1-9.8,4.9-14.7,7.4c-9.6,5-19.3,9.8-28.9,14.9c-8.6,4.5-17.2,9.3-25.2,14.9
		c-7.3,5.1-14.7,10.7-19.9,18.1c-2.7,3.8-4.8,7.8-6.8,12c1-4.8,2.1-9.5,3.2-14.3c9.2-40.3,20.8-80,34.9-118.9
		c1.6-4.3,3.2-8.6,4.8-12.8c8,0.8,16.2-1,23.5-4c8.2-3.3,15.4-8.1,20.7-15.3c5.5-7.5,8.2-16.7,7.4-26c-0.8-10-5.1-19.5-11-27.5
		c-2.5-3.5-5.5-6.7-8.9-9.2c-0.1-0.1-0.1-0.1-0.2-0.1c-3.7-2.8-8-4.7-12.8-5.3c-9.6-1.1-19.3,3-26.8,8.7
		c-12.7,9.7-19.7,24.8-19.3,40.7s7.8,30.9,23,37.1c0.1,0.1,0.2,0.1,0.4,0.2c-14.5,38.1-26.5,77.2-36.1,116.8
		c-9.9,40.5-17.3,81.5-22.6,122.8c-14.4-16.3-25.1-36.1-33.7-55.9c-3.9-9-7.4-18.3-10-27.8c-1-3.5-1.8-7-2.3-10.6
		c-0.7-5-0.7-10-1.4-15c-3.8-26.2-15.7-50.5-29.9-72.6c-7.3-11.4-15.3-22.3-23.5-33.1c-4.8-6.3-9.3-12.5-13.5-19.2
		c-5-8.1-10-16.2-15.8-23.7c-2.3-3-4.7-6.1-7.7-8.5c-2-1.6-4.3-3.2-7-2.5c-0.8,0.2-1.5,1.1-1.4,1.9c0.6,15.9,7.9,31.4,15,45.3
		c1.1,2.1,2.2,4.2,3.4,6.3c0,0.1,0,0.3,0,0.4c8.8,28.1,17.1,56.4,26.4,84.3c7.5,22.6,17.1,44.5,31.6,63.6
		c9.7,12.7,21.1,23.8,33.7,33.6c10.1,13.4,21.5,25.9,33.9,37.3c0.1,0.1,0.3,0.2,0.4,0.2c0.2,0.2,0.3,0.4,0.5,0.6
		c0.2,0.2,0.5,0.4,0.7,0.5c-5.1,41.3-8,83-8.7,124.6c-0.7,40.1,0.6,80.3,3.9,120.3c-9.2-30.2-22-59.2-38.5-86.1
		c-5.3-8.7-11.1-17-17.1-25.2c0-0.2,0-0.4-0.1-0.7c-0.5-1.9-1-3.8-1.5-5.8c-0.8-4.2-1.1-8.5-0.7-12.8c0.4-4.1,1.4-8.3,3.2-12
		c1.9-3.8,4.9-6.2,7.5-9.4c5.3-6.5,4.4-16.1,2.7-23.8c-1.9-8.4-5.7-16.1-11.1-22.8c-1-1.3-3.5-0.2-3.4,1.4
		c0.7,7.4,1.3,14.9,0.9,22.4c-0.5,7.5-2.8,14.2-5,21.3c-2.1,6.8-2.6,13.5-1.6,20.6c0.7,4.5,1.8,9,2.9,13.4
		c-10.2-13.2-21.2-25.8-32.7-37.8c-8.9-9.3-18-18.3-27.2-27.3c10.1-12.2,10-28.4,3.6-42.5c-6.7-14.9-20.4-25.8-36.6-28.5
		c-8.7-1.4-18.4-0.8-26.1,4c-4.3,2.6-7.4,6.4-9.6,10.7l0,0c-1.9,3.7-3.2,7.7-3.9,11.7c-3.3,18.2,1,38,17.3,48.5
		c8.2,5.2,17.7,7,27.3,6.4c8.4-0.5,17.1-2.5,24.2-7.1c0.3,0,0.7-0.1,1-0.1c0.1,0,0.1,0,0.2-0.1c17.6,17.5,35.2,35,51.1,54.1
		c21.2,25.7,39.2,53.9,52.9,84.3c9.4,20.8,16.7,42.5,22.1,64.7c0,0.1,0.1,0.1,0.1,0.2c3.7,37,9,73.9,16.3,110.5c1,5,2,10.1,3.1,15.1
		c0.5,2.5,4.3,1.4,3.8-1.1c-8.7-41.1-15.2-82.8-19.3-124.6c0-0.1,0-0.2,0-0.3c22.9-5.5,40.7-21.7,58.4-36.4
		c9.2-7.7,18.7-15.2,29.3-21c11.7-6.3,24.6-10.2,37.6-12.8c26.1-5.4,53.3-6.4,78.8-14.7c11.9-3.9,25.3-9.2,33.3-19.3
		c3.7-4.7,6.6-10.1,9.5-15.3c4.8-8.4,9.5-17,13.6-25.9c1.7-3.6,3.3-7.3,4.4-11.2C1224.2,616.2,1224.8,613.6,1223.8,611.2z
		 M1065,238.3c-4.2,8.2-11.1,14-19.3,17.9c-4.5,2.1-9.6,3.8-14.7,4.6c3.7-1.7,7.2-3.8,10.4-6.2c6.6-4.9,9-11.8,9.9-19.7
		c1.1-9-0.9-17.4-2.3-26.2c-1.2-7.1-1.4-15.2,2.8-21.4c1,0.8,1.9,1.6,2.8,2.6C1066.4,202.3,1073.3,222.1,1065,238.3z M997.9,231.2
		c-1.4-13.3,2.4-26.4,11.5-36.4c5.6-6.1,13-10.9,21.2-12.8c6.6-1.5,12.7-0.3,18.1,2.9c-8.7,12.7-1.1,28.4-0.8,42.5
		c0.2,8.1-0.9,17.6-7.5,23.1c-5.8,4.8-13.2,8-20.4,10.3c-0.5-0.1-0.9-0.1-1.4-0.2C1006.1,255.8,999.2,244,997.9,231.2z
		 M1073.2,358.5c-3,4.1-6.3,8-9.8,11.6c-6.8,7.1-14.4,13.4-22.7,18.7c-2.3,1.5-4.6,2.9-7,4.2c0.9-1.2,1.7-2.5,2.5-3.7
		c4.9-7.4,9.6-15,15.8-21.5c4.1-4.3,9.2-7.8,14.1-11.1c4.2-2.8,8.5-5.6,13.1-7.7C1077.7,352.5,1075.4,355.5,1073.2,358.5z
		 M985.3,405.7c4.4-7.6,10.4-13.2,17.4-18.4c14.8-11.2,31.8-19.2,48.2-27.6c5.3-2.7,10.5-5.4,15.8-8.1c0.5-0.2,0.9-0.5,1.4-0.7
		c-0.9,0.6-1.8,1.2-2.8,1.8c-5.2,3.4-10.4,6.9-14.8,11.2c-6,5.7-10.7,12.9-15.2,19.8c-2,3.1-3.9,6.2-6.3,9c-2.1,2.5-4.5,5.2-7.6,6.4
		c-2.5,1-5,2-7.5,2.9c-7.7,2.7-15.9,3.9-23.6,6.6c-3.2,1.1-6.1,2.5-8.7,4.3C982.7,410.4,983.9,408,985.3,405.7z M874.1,405.8
		c-10.1-20.5-16.3-42.5-23-64.3c-3.9-12.3-7.7-24.7-11.5-37c5.3,9.1,10.9,18.1,16.3,27.1c4.4,7.2,8.8,14.5,12.8,21.9
		c4.8,8.7,8.5,17.7,11.5,27.2c3.7,11.7,6.6,23.6,10.9,35.1c4.1,10.7,9.3,21,15.2,30.9c2.2,3.7,4.5,7.3,6.9,10.8
		C897.1,442.8,883.9,425.4,874.1,405.8z M913.9,451.4c-6.2-9.6-11.7-19.7-16.3-30.2c-4.8-11.2-8-22.9-11.4-34.5
		c-3-10.3-6.5-20.4-11.3-30c-3.6-7-7.6-13.9-11.7-20.6c-9.6-16-19.6-31.7-28.5-48.1c-4.8-8.8-9.3-17.7-12.9-27
		c-2.7-7-4.9-14.3-5.6-21.8c1,0.6,1.9,1.4,2.8,2.1c2.6,2.5,4.8,5.3,7,8.2c5,6.7,9.4,13.8,13.9,20.9c10.8,17.3,24.1,32.9,35.4,50
		c14.4,21.8,26.7,45.6,31.2,71.5c1.6,9,1.5,18,3.7,26.8c2.3,9,5.5,17.8,9,26.4c5.6,13.6,12.2,27.1,20.1,39.7
		C930,474.3,921.5,463.1,913.9,451.4z M793.2,501.5c15,0.9,28.8,9.8,36.1,22.9c7.7,13.8,9.2,31.2-2.2,43.5c-0.3,0.3-0.7,0.5-1.1,0.7
		c-8,1.2-17.3,1.7-24.9-1c-7.4-2.6-12.3-11.1-15.2-18c-5.4-12.5-5.8-29.6-18.9-36.8c0.9-1.4,1.8-2.7,2.9-3.9
		C775.9,502.7,785,501,793.2,501.5z M805.5,575.4c-7.5,0.7-15.2,0.2-22.2-2.8c-7.3-3.1-13.4-8.6-17.2-15.6c-4.1-7.6-5.1-16.5-4.5-25
		c0.4-5.2,1.3-10.8,3.5-15.7c6,3.5,9.3,9.9,11.4,16.4c2.7,8.3,4.3,16.7,8.7,24.4c4,6.9,9.2,13.1,17.2,15c4.4,1,8.9,1.4,13.5,1.3
		C812.6,574.4,809,575,805.5,575.4z M894.4,598.7c2.2-6.7,3.9-13.2,4.3-20.2c0.3-4.9,0-9.8-0.3-14.8c3.2,5.4,5.5,11.4,6.6,17.7
		c0.7,4.2,1.1,8.8,0,13c-1.2,4.4-4.5,6.6-7.3,10c-2.9,3.6-4.8,8-5.9,12.7C891.4,610.8,892.4,604.9,894.4,598.7z M1079.2,652.7
		c9.3-2.7,18.8-4.3,28.5-4.8c8.4-0.4,16.8,0,25.2,0.4c-14.5,8.8-31,13.2-47.6,16.4c-15.3,2.9-31.2,3.9-45.9,9.2c-2,0.7-4,1.6-6,2.5
		C1046.9,665.6,1062.6,657.5,1079.2,652.7z M1215.7,627.8c-3.5,7.8-7.6,15.3-11.8,22.8c-3,5.4-6.1,10.8-9.5,15.9
		c-6.7,9.9-19.2,15.2-30,19c-24.7,8.7-51.1,9.9-76.6,14.7c-12.6,2.4-25.1,5.6-36.9,11c-10.7,4.9-20.3,11.7-29.5,19
		c-16,12.8-31.5,28-50.3,36.5c6.6-5.8,11.9-13,16-21c5.5-10.8,8.7-22.7,14.8-33.1c4.5-7.8,9.9-15,16-21.7
		c13-10.9,28.5-15.9,45.1-18.6c16.6-2.7,33.1-4.9,49.1-10.2c8.2-2.7,16.1-6.2,23.5-10.8c0.1,0,0.2,0,0.3-0.1
		c6.3-3.1,12.4-6.6,18.8-9.3c5-2.2,10.2-3.3,15.5-4.5c10.5-2.3,20.7-5.4,30.4-10c6.8-3.2,13.3-7.1,19.6-11.4
		c-0.2,0.8-0.4,1.5-0.6,2.3C1218.5,621.5,1217.1,624.7,1215.7,627.8z"/>
	<path id="XMLID_18_" class="st0" d="M936.1,329.4c0.3-0.2,0.6-0.3,0.9-0.5l0.2-0.1c0.1-0.1,0.3-0.1,0.4-0.1
		c0.6-0.2,1.3-0.4,1.9-0.5c0,0,0.2,0,0.3,0s0.3,0,0.3,0c0.3,0,0.6,0,0.9,0c0.3,0,0.7,0,1,0h0.2c0.2,0,0.3,0.1,0.5,0.1
		c0.3,0.1,0.6,0.2,0.9,0.2c0.1,0,0.2,0.1,0.3,0.1s0.1,0,0.1,0s0,0,0.1,0c0.3,0.1,0.5,0.3,0.8,0.4c0.2,0.1,0.3,0.2,0.4,0.3l0.2,0.2
		c0.2,0.1,0.3,0.3,0.5,0.4c0.1,0.1,0.2,0.2,0.3,0.3l0,0l0,0c0.1,0.2,0.3,0.5,0.4,0.7c0,0.1,0.1,0.2,0.1,0.3s0.1,0.3,0.1,0.3
		c0.2,0.4,0.3,0.9,0.4,1.3c0,0.1,0.1,0.6,0,0.1c0,0.1,0,0.2,0,0.3c0,0.3,0,0.6,0,0.9c0,0.1,0,0.3,0,0.4l0,0
		c-0.1,0.2-0.1,0.5-0.2,0.8c0,0.1-0.2,0.5-0.2,0.5c-0.1,0.2-0.2,0.4-0.3,0.6l-0.1,0.1c-0.1,0.1-0.1,0.1-0.1,0.1
		c-0.1,0.2-0.3,0.3-0.4,0.4c-0.1,0-0.1,0.1-0.2,0.1c-0.1,0.1-0.2,0.1-0.3,0.2h-0.1c0,0-0.2,0.1-0.3,0.1s-0.2,0.1-0.3,0.1
		s-0.1,0-0.1,0c-0.1,0-0.6,0-0.6,0c-0.1,0-0.2,0-0.3,0l0,0c-0.2,0-0.6-0.1-0.7-0.2c-0.1,0-0.3-0.1-0.4-0.1l0,0l0,0
		c-0.2-0.1-0.5-0.2-0.7-0.4c-0.1-0.1-0.2-0.2-0.3-0.2c0.1,0.1,0.1,0.1,0.2,0.1c-0.1,0-0.1-0.1-0.2-0.1c-0.2-0.2-0.4-0.4-0.6-0.6l0,0
		l0,0c-0.1-0.1-0.1-0.2-0.2-0.3c0,0-0.1-0.1-0.1-0.2v-0.1c0-0.1-0.1-0.2-0.1-0.4l0,0l0,0c0-0.1,0-0.2,0-0.3s0-0.1,0-0.1l0,0
		c0.2-1-0.3-2.2-1.4-2.4c-1-0.2-2.2,0.3-2.4,1.4c-0.6,3,1.1,5.8,3.8,7.2s6,1.3,8.4-0.8c2.3-2.1,2.9-5.5,2.3-8.4
		c-0.7-3.3-3-5.7-6.1-6.9c-3.6-1.4-7.8-0.7-11,1.2c-0.9,0.5-1.3,1.8-0.7,2.7C934,329.6,935.1,330,936.1,329.4z"/>
	<path id="XMLID_17_" class="st0" d="M941.8,337.1C941.9,337.1,941.9,337.1,941.8,337.1L941.8,337.1z"/>
	<path id="XMLID_125_" class="st0" d="M998.8,612.4c1.3,2.4,3.1,4.7,5.5,6.1c2.4,1.5,5.6,1.5,7.6-0.8c2-2.2,1.7-5.2,0.5-7.7
		c-1.3-2.6-3.8-4.6-6.5-5.4c-1.9-0.5-4-0.3-5.6,1s-2.4,3.1-2.1,5.1c0,0.3,0.2,0.5,0.4,0.8C998.6,611.8,998.7,612.1,998.8,612.4z
		 M1004.4,608.4C1004.5,608.4,1004.5,608.4,1004.4,608.4L1004.4,608.4z M1002,609.8L1002,609.8L1002,609.8
		C1002.1,610.2,1002,609.8,1002,609.8C1002,609.7,1002,609.7,1002,609.8c0-0.2,0.1-0.2,0.1-0.3l0,0c0-0.1,0.1-0.2,0.2-0.3l0,0
		c0.1-0.1,0.2-0.2,0.3-0.3l0,0c0,0,0,0,0.1,0c0.1-0.1,0.2-0.1,0.3-0.2c0,0,0,0,0.1,0s0.4-0.1,0.5-0.1c0.3,0,0.5,0,0.8,0l0,0
		c0.2,0,0.4,0.1,0.6,0.1c0.1,0,0.3,0.1,0.4,0.1c0,0,0.2,0.1,0.3,0.1s0.2,0.1,0.2,0.1c0.1,0.1,0.3,0.1,0.4,0.2
		c0.3,0.2,0.5,0.3,0.8,0.5l0,0c0.1,0.1,0.2,0.2,0.3,0.2c0.2,0.1,0.3,0.3,0.5,0.5c0.1,0.1,0.4,0.3,0.4,0.5l0,0
		c0.1,0.1,0.1,0.2,0.2,0.3c0.2,0.2,0.3,0.5,0.4,0.7c0,0.1,0.1,0.2,0.1,0.2s0,0,0,0.1c0.1,0.2,0.2,0.4,0.2,0.6
		c0.1,0.2,0.1,0.4,0.2,0.6c0,0,0,0.1,0,0.2v0.1c0,0.2,0,0.4,0,0.6l0,0c0,0.1,0,0.1,0,0.1c0,0.1-0.1,0.2-0.1,0.3
		c-0.1,0.1-0.3,0.5-0.3,0.5c0-0.2,0.3-0.3,0-0.1c-0.1,0.1-0.2,0.1-0.2,0.2c-0.1,0-0.2,0.1-0.3,0.2c0,0-0.1,0-0.1,0.1l0,0h-0.1
		c-0.1,0-0.2,0-0.2,0.1c0,0,0,0-0.1,0l0,0c-0.1,0-0.4,0-0.5,0s-0.2,0-0.2-0.1c-0.1,0-0.2-0.1-0.3-0.1s-0.3-0.2-0.1,0s-0.1,0-0.1-0.1
		c-0.1-0.1-0.2-0.1-0.4-0.2c-0.2-0.1-0.5-0.3-0.7-0.5l0,0l0,0c-0.1-0.1-0.3-0.2-0.4-0.3c-0.4-0.4-0.8-0.8-1.2-1.2
		c-0.1-0.1-0.2-0.2-0.3-0.4l-0.2-0.2c-0.1-0.2-0.3-0.4-0.4-0.6c-0.3-0.5-0.6-1-0.9-1.5c-0.1-0.1-0.2-0.2-0.2-0.3
		C1002,610,1002,609.9,1002,609.8L1002,609.8z"/>
</g>
</svg>
