<?xml version="1.0" encoding="utf-8"?>
<!-- Generator: Adobe Illustrator 19.0.0, SVG Export Plug-In . SVG Version: 6.00 Build 0)  -->
<svg version="1.1" id="Layer_1" xmlns="http://www.w3.org/2000/svg" xmlns:xlink="http://www.w3.org/1999/xlink" x="0px" y="0px"
	 viewBox="0 0 1920 1080" style="enable-background:new 0 0 1920 1080;" xml:space="preserve">
<style type="text/css">
	.st0{fill:none;stroke:#000000;stroke-width:1.2245;stroke-miterlimit:10;}
</style>
<g id="XMLID_225_">
	<path id="XMLID_263_" class="st0" d="M905.9,264.8c0.9,1.7,2.3,3.1,4,4c3.4,1.8,7.6,1.3,10.4-1.2c2.8-2.4,3.5-6.5,2-9.8
		c-1.6-3.6-5.8-5.1-9.5-4.3c-2.5,0.6-4.5,2.2-5.8,4.2c-0.2,0-0.3-0.1-0.5-0.1c-1.1,0-2,0.9-2,2s0.2,2.1,0.5,3.2
		C905,263.5,905.3,264.3,905.9,264.8z M910.2,260c0.4-0.6,0.5-0.8,1.1-1.3c0.4-0.4,0.8-0.7,1.5-1.1c0.1,0,0.1-0.1,0.1-0.1s0,0,0.1,0
		s0.2-0.1,0.4-0.1c0.3-0.1,0.6-0.1,0.9-0.2c0.1,0,0.3,0,0.4,0c0.1,0,0.3,0,0.4,0c0.2,0,0.4,0,0.6,0c0.1,0,0.1,0,0.1,0s0,0,0.1,0
		c0.3,0.1,0.6,0.2,0.9,0.3c0.1,0,0.1,0,0.1,0s0,0,0.1,0.1s0.2,0.1,0.3,0.2l0.3,0.2c0.1,0.1,0.1,0.1,0.2,0.2c0.1,0.1,0.2,0.3,0.4,0.4
		l0.1,0.1c0,0,0,0,0.1,0.1c0.2,0.3,0.3,0.5,0.4,0.8c0,0,0,0,0,0.1l0,0c0,0.1,0.1,0.3,0.1,0.4c0,0.1,0.1,0.3,0.1,0.4c0,0,0,0.1,0,0.2
		c0,0.3,0,0.7,0,1c0,0,0,0.2,0,0.3s0,0.3,0,0.3c-0.1,0.3-0.2,0.6-0.2,0.9c0,0.1,0,0.1,0,0.1l0,0c-0.1,0.1-0.1,0.3-0.2,0.4
		s-0.2,0.3-0.2,0.4l-0.1,0.1c0,0,0,0-0.1,0.1c-0.2,0.2-0.4,0.4-0.6,0.6c0,0,0,0-0.1,0c-0.2,0.1-0.3,0.2-0.5,0.3
		c-0.1,0.1-0.2,0.1-0.3,0.2c0,0-0.2,0.1-0.3,0.1c-0.3,0.1-0.6,0.2-1,0.3c-0.1,0-0.2,0.1-0.4,0.1c-0.1,0-0.1,0-0.1,0s0,0-0.1,0
		c-0.3,0-0.6,0-0.9,0c-0.1,0-0.2,0-0.4,0c-0.1,0-0.1,0-0.1,0s0,0-0.1,0c-0.4-0.1-0.7-0.2-1.1-0.3h-0.1c-0.2-0.1-0.4-0.2-0.5-0.3
		s-0.3-0.2-0.4-0.3c0,0-0.2-0.2-0.3-0.2c-0.3-0.2-0.5-0.5-0.8-0.7c-0.1-0.1-0.2-0.2-0.3-0.4l-0.2-0.3c-0.2-0.3-0.3-0.6-0.5-0.8
		c0.1-0.3,0.1-0.5,0.2-0.8C909.5,261.1,909.8,260.7,910.2,260z"/>
	<path id="XMLID_136_" class="st0" d="M1141.8,256.1C1141.9,256.2,1142.1,256.2,1141.8,256.1L1141.8,256.1z"/>
	<path id="XMLID_135_" class="st0" d="M1142.5,256.4L1142.5,256.4L1142.5,256.4L1142.5,256.4
		C1142.8,256.4,1142.8,256.4,1142.5,256.4z"/>
	<path id="XMLID_134_" class="st0" d="M1146.3,255L1146.3,255C1146.4,254.8,1146.4,254.8,1146.3,255z"/>
	<path id="XMLID_133_" class="st0" d="M1143.5,256.4C1143.6,256.4,1143.6,256.4,1143.5,256.4
		C1143.7,256.4,1143.9,256.3,1143.5,256.4z"/>
	<path id="XMLID_255_" class="st0" d="M1143.7,260.3c2.5-0.3,4.8-1.5,6.1-3.6c1.4-2.4,1.1-5.5-0.5-7.7c-2-2.7-5.3-4.3-8.6-3.5
		c-0.7,0.2-1.2,0.8-1.4,1.5c-0.1-0.1-0.2-0.2-0.4-0.2c-1-0.2-2.2,0.3-2.4,1.4c-0.5,3-0.9,6.3,0.8,9
		C1138.7,259.4,1141.2,260.6,1143.7,260.3z M1143.2,249.3c-0.1,0-0.1,0-0.2,0C1143.1,249.3,1143.2,249.3,1143.2,249.3z
		 M1141.8,249.4c0,0,0.1,0,0.2-0.1c0.1,0,0.1,0,0.2,0c0.2,0,0.5,0,0.7,0c0,0,0,0,0.1,0s0.1,0,0.2,0c0.3,0.1,0.5,0.1,0.8,0.2h0.1l0,0
		c0.1,0,0.1,0.1,0.1,0.1c0.2,0.1,0.4,0.2,0.7,0.4c0.1,0,0.2,0.1,0.2,0.2c0,0,0.1,0,0.1,0.1c0.2,0.2,0.4,0.4,0.6,0.6
		c0.1,0.1,0.1,0.1,0.2,0.2l0,0l0,0c0.1,0.2,0.3,0.4,0.4,0.6c0.1,0.1,0.1,0.2,0.2,0.4l0,0c0.1,0.2,0.2,0.6,0.2,0.7c0,0.1,0,0.1,0,0.1
		c0,0.1,0,0.2,0,0.3s0,0.4,0,0.6c0,0,0,0,0,0.1s0,0.2-0.1,0.3c0,0.1-0.1,0.2-0.1,0.3c-0.1,0.2-0.2,0.3-0.3,0.5
		c-0.1,0.1-0.1,0.2-0.2,0.3c0-0.1,0-0.1,0.1-0.1c-0.1,0.1-0.3,0.3-0.4,0.4c-0.1,0-0.1,0.1-0.2,0.1c0,0,0,0-0.1,0
		c-0.3,0.2-0.7,0.3-1,0.5c0.4-0.3,0.3-0.1,0,0c-0.1,0-0.2,0.1-0.3,0.1c-0.2,0.1-0.4,0.1-0.7,0.2c-0.1,0-0.2,0-0.3,0c0,0,0,0,0.1,0
		c-0.2,0-0.4,0-0.5,0s-0.2,0-0.3,0l0,0c-0.1,0-0.1,0-0.2,0h0.1c-0.1,0-0.2,0-0.3-0.1c-0.2,0-0.3-0.1-0.5-0.2h0.1l0,0
		c-0.1-0.1-0.2-0.1-0.3-0.2l-0.1-0.1c-0.1-0.1-0.3-0.3-0.4-0.4l-0.1-0.1c-0.1-0.2-0.2-0.3-0.3-0.5c0,0,0-0.1-0.1-0.1
		c-0.1-0.1-0.1-0.3-0.1-0.4c-0.1-0.3-0.2-0.6-0.2-0.9c0,0,0,0,0-0.1l0,0c0-0.2,0-0.3,0-0.5c0-0.6,0-1.3,0-1.9c0-0.2,0-0.3,0-0.5
		c0-0.1,0-0.1,0-0.2c0.1-0.3,0.1-0.7,0.2-1c0,0,0,0,0-0.1C1140.8,249.4,1141.3,249.5,1141.8,249.4z"/>
	<path id="XMLID_234_" class="st0" d="M1204.1,298.5c-0.2,0.1-0.3,0.1-0.5,0.2c-0.4-0.1-1-0.1-1.5,0.3c-0.1,0.1-0.3,0.2-0.4,0.3
		c-30.8,9.5-61.6,22.1-88,40.8c-10.1,7.2-19.3,15.8-27.6,25c-9.3,10.2-17.7,21.3-24.5,33.3c-6.6,11.7-12,24.8-12.2,38.4
		c-0.7,1.8-1.5,3.5-2.2,5.3c2.6-15.9,3.4-32.1,3.2-48.2c-0.4-24.9-3.2-49.7-6.7-74.3c-1.7-12-3.7-24-5.7-35.9c1,0.8,2.1,1.6,3.1,2.3
		c1.1,0.8,2.1,1.6,3.2,2.3c1,0.7,2.1,1.5,3.1,2.2s2.1,1.4,3.1,2.1c1,0.7,2,1.3,3,2c1,0.6,2,1.2,3,1.8s1.9,1.2,2.9,1.7
		c0.9,0.5,1.9,1.1,2.8,1.6s1.8,1,2.8,1.5c0.9,0.5,1.8,0.9,2.7,1.4c0.9,0.4,1.7,0.9,2.6,1.3c0.8,0.4,1.7,0.8,2.6,1.2
		c0.8,0.4,1.7,0.7,2.5,1.1c1,0.4,1.9,0.8,2.9,1.2c0.8,0.3,1.6,0.6,2.3,0.9c0.8,0.3,1.5,0.6,2.3,0.8c0.7,0.3,1.5,0.5,2.2,0.7
		s1.4,0.4,2.1,0.6c0.7,0.2,1.4,0.4,2.1,0.6c0.7,0.2,1.3,0.3,2,0.5c0.6,0.1,1.3,0.3,1.9,0.4c0.6,0.1,1.2,0.2,1.8,0.3
		c0.8,0.1,1.5,0.2,2.3,0.3c0.6,0.1,1.1,0.1,1.7,0.2c0.5,0,1.1,0.1,1.6,0.1s1,0,1.5,0s0.9,0,1.4,0s0.9,0,1.3-0.1
		c0.6-0.1,1.2-0.1,1.8-0.2c0.4-0.1,0.8-0.1,1.2-0.2c0.4-0.1,0.7-0.2,1.1-0.3c0.3-0.1,0.7-0.2,1-0.3c0.5-0.2,0.9-0.4,1.4-0.6
		c0.3-0.1,0.6-0.3,0.8-0.4c0.3-0.1,0.5-0.3,0.7-0.5c0.4-0.2,0.7-0.5,1-0.8c0.2-0.2,0.4-0.4,0.6-0.5c0.3-0.3,0.5-0.6,0.8-1
		c0.1-0.2,0.3-0.4,0.4-0.6c0.2-0.4,0.3-0.7,0.5-1.1c0.1-0.2,0.1-0.5,0.2-0.7c0.1-0.4,0.1-0.8,0.2-1.2c0-0.2,0-0.5,0-0.7
		c0-0.4-0.1-0.9-0.2-1.3c0-0.3-0.1-0.5-0.2-0.8s-0.2-0.5-0.3-0.8c-0.2-0.4-0.4-0.9-0.6-1.3c-0.1-0.3-0.3-0.6-0.5-0.8
		c-0.2-0.3-0.4-0.6-0.6-0.9c-0.3-0.4-0.6-0.8-1-1.3c-0.2-0.3-0.5-0.6-0.8-0.9c-0.3-0.3-0.6-0.6-0.9-0.9c-0.3-0.3-0.6-0.6-1-0.9
		c-0.5-0.4-1-0.8-1.5-1.2c-0.4-0.3-0.8-0.6-1.2-0.9c-0.4-0.3-0.9-0.6-1.3-0.9c-0.5-0.3-0.9-0.6-1.4-0.9c-0.5-0.3-1-0.6-1.5-0.9
		c-0.5-0.3-1.1-0.6-1.6-0.8c-0.6-0.3-1.1-0.6-1.7-0.8c-0.6-0.3-1.2-0.6-1.8-0.8c-0.8-0.3-1.6-0.7-2.4-1c-0.7-0.3-1.4-0.5-2.1-0.8
		s-1.4-0.5-2.2-0.8c-0.8-0.3-1.5-0.5-2.3-0.7s-1.6-0.5-2.4-0.7s-1.7-0.5-2.5-0.7c-0.9-0.2-1.8-0.4-2.6-0.6c-0.9-0.2-1.8-0.4-2.7-0.6
		c-1-0.2-1.9-0.4-2.9-0.6c-1-0.2-2-0.4-3-0.5c-1-0.2-2.1-0.3-3.1-0.5c-1.2-0.2-2.5-0.3-3.7-0.5c-1.1-0.1-2.2-0.3-3.3-0.4
		c-1.2-0.1-2.3-0.2-3.5-0.3s-2.4-0.2-3.6-0.3s-2.5-0.2-3.7-0.2c-0.3,0-0.5,0-0.8,0c0.4-0.1,0.8-0.2,1.3-0.3c1.2-0.3,2.4-0.7,3.6-1.1
		c1.1-0.3,2.3-0.7,3.4-1.1c1.1-0.4,2.2-0.7,3.3-1.1c1.1-0.4,2.1-0.7,3.2-1.1c1-0.4,2-0.8,3-1.1c1-0.4,1.9-0.8,2.9-1.2
		c1.1-0.4,2.2-0.9,3.2-1.4c0.9-0.4,1.8-0.8,2.7-1.2c0.9-0.4,1.7-0.8,2.5-1.2s1.6-0.8,2.4-1.2s1.5-0.8,2.3-1.2
		c0.7-0.4,1.5-0.8,2.2-1.2s1.4-0.8,2-1.2c0.7-0.4,1.3-0.8,1.9-1.2s1.2-0.8,1.8-1.2c0.6-0.4,1.1-0.8,1.7-1.2c0.7-0.5,1.3-1,2-1.5
		c0.5-0.4,1-0.8,1.5-1.2s0.9-0.8,1.4-1.2c0.4-0.4,0.9-0.8,1.3-1.2s0.8-0.8,1.2-1.2c0.4-0.4,0.7-0.8,1.1-1.1c0.3-0.4,0.6-0.7,1-1.1
		c0.4-0.5,0.8-1,1.2-1.5c0.3-0.4,0.5-0.7,0.8-1.1c0.2-0.3,0.4-0.7,0.7-1.1c0.2-0.3,0.4-0.7,0.5-1c0.2-0.5,0.4-1,0.7-1.5
		c0.1-0.3,0.3-0.6,0.4-1c0.1-0.3,0.2-0.6,0.3-0.9c0.1-0.3,0.1-0.6,0.2-0.9c0.1-0.5,0.1-0.9,0.2-1.4c0-0.3,0-0.5,0-0.8
		c0-0.1,0-0.3,0-0.4c0-0.3-0.1-0.6-0.1-0.9c0-0.2-0.1-0.5-0.2-0.7c-0.1-0.4-0.3-0.8-0.5-1.2c-0.1-0.2-0.2-0.4-0.4-0.6
		c-0.2-0.3-0.5-0.7-0.8-1c-0.2-0.2-0.3-0.4-0.5-0.5c-0.3-0.3-0.7-0.5-1-0.8c-0.2-0.2-0.4-0.3-0.7-0.4c-0.4-0.2-0.8-0.4-1.2-0.6
		c-0.3-0.1-0.6-0.2-0.8-0.3c-0.3-0.1-0.6-0.2-0.9-0.2c-0.5-0.1-1-0.2-1.5-0.2c-0.4,0-0.7-0.1-1.1-0.1s-0.8,0-1.1,0
		c-0.4,0-0.8,0-1.2,0c-0.4,0-0.8,0.1-1.3,0.1c-0.6,0.1-1.2,0.2-1.9,0.3c-0.5,0.1-0.9,0.2-1.4,0.3s-1,0.2-1.5,0.4
		c-0.5,0.1-1,0.3-1.5,0.4c-0.5,0.2-1.1,0.3-1.6,0.5c-0.6,0.2-1.1,0.4-1.7,0.6c-0.7,0.3-1.5,0.6-2.2,0.9c-0.6,0.3-1.2,0.5-1.8,0.8
		c-0.6,0.3-1.2,0.6-1.8,0.9c-0.6,0.3-1.3,0.7-1.9,1c-0.7,0.4-1.3,0.7-1.9,1.1c-0.7,0.4-1.3,0.8-2,1.2s-1.4,0.9-2,1.3
		c-0.7,0.5-1.4,0.9-2.1,1.4s-1.4,1-2.1,1.5s-1.5,1.1-2.2,1.6c-0.9,0.7-1.8,1.3-2.6,2c-0.8,0.6-1.5,1.2-2.3,1.8s-1.6,1.3-2.3,2
		c-0.8,0.7-1.6,1.4-2.4,2.1c-0.8,0.7-1.6,1.5-2.4,2.2c-0.8,0.8-1.6,1.5-2.4,2.3s-1.7,1.6-2.5,2.4c-0.8,0.8-1.7,1.7-2.5,2.6
		c-0.9,0.9-1.7,1.8-2.6,2.7s-1.7,1.9-2.6,2.8c-0.3,0.3-0.6,0.6-0.8,0.9c0.3-0.9,0.5-1.7,0.8-2.6c0.4-1.3,0.8-2.6,1.2-4
		c0.4-1.3,0.7-2.6,1.1-3.8c0.3-1.2,0.7-2.5,1-3.7s0.6-2.4,0.9-3.6c0.3-1.2,0.6-2.3,0.9-3.5c0.3-1.1,0.5-2.3,0.8-3.4
		c0.2-1.1,0.5-2.2,0.7-3.3s0.4-2.1,0.6-3.2c0.2-1,0.4-2,0.6-3.1c0.2-1,0.3-2,0.5-2.9c0.1-0.9,0.3-1.9,0.4-2.8
		c0.2-1.1,0.3-2.2,0.4-3.2c0.1-0.9,0.2-1.7,0.3-2.6c0.1-0.8,0.2-1.7,0.2-2.5c0.1-0.8,0.1-1.6,0.2-2.4c0-0.8,0.1-1.5,0.1-2.3
		c0-0.7,0-1.4,0.1-2.2c0-0.7,0-1.4,0-2.1c0-0.7,0-1.3,0-2c0-0.6-0.1-1.2-0.1-1.8s-0.1-1.2-0.1-1.7c-0.1-0.5-0.1-1.1-0.2-1.6
		c-0.1-0.7-0.2-1.4-0.3-2c-0.1-0.5-0.2-0.9-0.3-1.4c-0.1-0.4-0.2-0.9-0.3-1.3c-0.1-0.4-0.2-0.8-0.3-1.2c-0.1-0.4-0.2-0.7-0.4-1.1
		c-0.2-0.5-0.4-1-0.6-1.5c-0.1-0.3-0.3-0.6-0.4-0.9c-0.1-0.3-0.3-0.5-0.5-0.8c-0.2-0.4-0.5-0.7-0.8-1.1c-0.2-0.2-0.3-0.4-0.5-0.6
		c-0.2-0.2-0.3-0.3-0.5-0.5c-0.3-0.2-0.6-0.5-0.9-0.7s-0.7-0.3-1-0.5c-0.2-0.1-0.4-0.1-0.6-0.2c-0.4-0.1-0.7-0.1-1.1-0.1
		s-0.8,0.1-1.1,0.1c-0.2,0-0.4,0.1-0.6,0.1c-0.4,0.1-0.7,0.3-1.1,0.4c-0.2,0.1-0.4,0.2-0.6,0.4c-0.4,0.2-0.7,0.5-1,0.8
		c-0.2,0.2-0.4,0.4-0.6,0.6c-0.2,0.2-0.4,0.4-0.6,0.7c-0.3,0.4-0.6,0.8-0.9,1.1c-0.2,0.3-0.4,0.6-0.6,0.8c-0.2,0.3-0.4,0.6-0.6,1
		c-0.2,0.3-0.4,0.7-0.6,1.1c-0.2,0.4-0.4,0.8-0.6,1.1c-0.2,0.4-0.4,0.8-0.6,1.2c-0.3,0.6-0.5,1.2-0.7,1.8c-0.2,0.5-0.4,1-0.5,1.4
		c-0.2,0.5-0.3,1-0.5,1.5s-0.3,1.1-0.5,1.6c-0.2,0.6-0.3,1.2-0.5,1.7c-0.2,0.6-0.3,1.2-0.4,1.8s-0.3,1.3-0.4,1.9
		c-0.1,0.7-0.3,1.4-0.4,2c-0.1,0.7-0.2,1.4-0.3,2.1c-0.1,0.9-0.3,1.8-0.4,2.7c-0.1,0.8-0.2,1.5-0.3,2.3c-0.1,0.8-0.2,1.6-0.2,2.4
		c-0.1,0.8-0.1,1.7-0.2,2.5c-0.1,0.9-0.1,1.7-0.1,2.6c0,0.9-0.1,1.8-0.1,2.7s0,1.8-0.1,2.8c0,1,0,1.9,0,2.9s0,2,0.1,3
		c0,1,0.1,2,0.1,3.1c0,1,0.1,2.1,0.2,3.1c0.1,1.1,0.1,2.2,0.2,3.2c0.1,1.1,0.2,2.2,0.3,3.3c0.1,1.1,0.2,2.3,0.3,3.4
		c0.1,1.2,0.3,2.3,0.4,3.5c0.2,1.4,0.4,2.7,0.5,4.1c0.2,1.2,0.4,2.5,0.5,3.7c0.2,1.3,0.4,2.5,0.6,3.8v0.1c-0.2-0.3-0.4-0.5-0.7-0.8
		c-0.9-1-1.7-2-2.6-2.9s-1.7-1.9-2.6-2.8c-0.8-0.9-1.7-1.8-2.6-2.6c-0.8-0.8-1.7-1.7-2.5-2.5s-1.7-1.6-2.5-2.4
		c-0.8-0.8-1.6-1.5-2.5-2.2c-0.8-0.7-1.6-1.4-2.4-2.1c-0.8-0.7-1.6-1.3-2.4-2c-0.9-0.7-1.8-1.4-2.7-2.1c-0.8-0.6-1.5-1.2-2.3-1.7
		s-1.5-1.1-2.3-1.6c-0.7-0.5-1.5-1-2.2-1.5s-1.4-0.9-2.2-1.4c-0.7-0.4-1.4-0.8-2.1-1.2c-0.7-0.4-1.4-0.8-2.1-1.1
		c-0.7-0.4-1.4-0.7-2-1c-0.7-0.3-1.3-0.6-2-0.9c-0.8-0.4-1.6-0.7-2.4-1c-0.6-0.3-1.3-0.5-1.9-0.7c-0.6-0.2-1.2-0.4-1.8-0.6
		c-0.6-0.2-1.2-0.4-1.8-0.5c-0.6-0.2-1.1-0.3-1.7-0.4c-0.5-0.1-1.1-0.2-1.7-0.3c-0.5-0.1-1.1-0.2-1.6-0.3c-0.7-0.1-1.4-0.2-2-0.2
		c-0.5,0-1-0.1-1.5-0.1s-0.9,0-1.4,0c-0.4,0-0.9,0-1.3,0.1c-0.6,0-1.2,0.1-1.8,0.2c-0.4,0.1-0.8,0.1-1.2,0.2
		c-0.4,0.1-0.7,0.2-1.1,0.3c-0.4,0.1-0.7,0.2-1,0.3c-0.5,0.2-1,0.4-1.4,0.6c-0.3,0.1-0.6,0.3-0.9,0.5c-0.3,0.2-0.5,0.3-0.8,0.5
		c-0.4,0.3-0.8,0.6-1.1,0.9c-0.2,0.2-0.4,0.4-0.7,0.6c-0.3,0.3-0.6,0.7-0.9,1.1c-0.2,0.2-0.3,0.5-0.5,0.7c-0.1,0.3-0.3,0.5-0.4,0.8
		c-0.2,0.4-0.4,0.8-0.5,1.3c-0.1,0.3-0.2,0.6-0.2,0.9c-0.1,0.5-0.2,0.9-0.2,1.4c0,0.3,0,0.6,0,0.9c0,0.3,0,0.6,0.1,1
		c0.1,0.5,0.1,1,0.2,1.5c0.1,0.3,0.2,0.7,0.2,1c0.1,0.4,0.2,0.7,0.3,1c0.2,0.5,0.4,1,0.6,1.5c0.2,0.4,0.4,0.7,0.5,1.1
		c0.2,0.4,0.4,0.7,0.7,1.1c0.2,0.4,0.5,0.8,0.8,1.1c0.4,0.5,0.8,1,1.2,1.5c0.3,0.4,0.6,0.8,1,1.1c0.3,0.4,0.7,0.8,1.1,1.1
		c0.4,0.4,0.8,0.8,1.2,1.1c0.4,0.4,0.9,0.8,1.3,1.1c0.6,0.5,1.2,1,1.8,1.4c0.5,0.4,1,0.8,1.5,1.1c0.5,0.4,1.1,0.8,1.6,1.1
		c0.6,0.4,1.2,0.8,1.8,1.1c0.6,0.4,1.3,0.7,1.9,1.1c0.7,0.4,1.3,0.7,2,1.1c0.7,0.4,1.4,0.7,2.1,1.1c0.7,0.4,1.5,0.7,2.3,1.1
		c0.9,0.4,1.9,0.8,2.8,1.2c0.8,0.3,1.7,0.7,2.5,1c0.9,0.3,1.8,0.7,2.6,1c0.9,0.3,1.8,0.6,2.8,0.9c1,0.3,1.9,0.6,2.9,0.9
		c1,0.3,2,0.6,3,0.9c1.1,0.3,2.1,0.6,3.2,0.8c1.1,0.3,2.2,0.5,3.3,0.8s2.3,0.5,3.5,0.8c1.2,0.2,2.4,0.5,3.6,0.7
		c1.2,0.2,2.5,0.5,3.7,0.7c1.3,0.2,2.6,0.4,3.9,0.6c1.5,0.2,3,0.4,4.5,0.6c1.2,0.2,2.4,0.3,3.5,0.4c-1,0.9-2,1.7-2.9,2.6
		c-1.9,1.8-3.8,3.6-5.6,5.4c-1.7,1.7-3.4,3.5-5.1,5.2c-1.5,1.7-3.1,3.3-4.5,5.1c-1.4,1.6-2.7,3.2-4,4.9s-2.6,3.4-3.9,5.1
		c-1.1,1.5-2.1,3-3.1,4.5c-0.9,1.4-1.8,2.8-2.7,4.3c-0.8,1.3-1.6,2.7-2.3,4.1c-0.7,1.3-1.3,2.5-1.9,3.8c-0.6,1.3-1.2,2.7-1.7,4.1
		c-0.4,1.1-0.8,2.2-1.1,3.3c-0.3,1-0.6,2-0.8,3.1s-0.4,2.2-0.5,3.3c-0.1,0.8-0.2,1.7-0.2,2.5s0,1.5,0.1,2.3s0.2,1.7,0.5,2.5
		c0.2,0.7,0.5,1.4,0.9,2.1c0.3,0.6,0.7,1.2,1.2,1.7c0.4,0.5,1,0.9,1.5,1.3c0.5,0.4,1.2,0.6,1.8,0.9c0.6,0.2,1.3,0.3,2,0.4
		c0.6,0.1,1.1,0,1.7,0c0.8-0.1,1.6-0.2,2.3-0.5c0.8-0.3,1.6-0.6,2.4-1c0.7-0.3,1.4-0.7,2.1-1.2c0.9-0.6,1.7-1.2,2.5-1.9
		c0.8-0.6,1.5-1.3,2.2-2c0.8-0.8,1.6-1.6,2.3-2.4c0.8-0.9,1.6-1.9,2.3-2.8c0.9-1.2,1.8-2.4,2.7-3.6c0.8-1.2,1.6-2.4,2.4-3.7
		c0.8-1.4,1.6-2.8,2.4-4.2c0.8-1.5,1.6-3.1,2.3-4.6c0.9-1.8,1.7-3.7,2.5-5.5s1.5-3.7,2.2-5.6c0.7-2,1.4-4,2.1-6.1
		c0.7-2.2,1.4-4.4,2-6.6c0.7-2.4,1.3-4.7,1.9-7.1c0.4-1.5,0.7-3.1,1.1-4.6c7.3,44.2,14.1,89.4,10.3,134.2
		c-1.1,12.8-3.2,25.5-6.9,37.8c-3.9,9.1-7.7,18.2-11.6,27.3c-7.6,17.9-15.5,35.6-22.4,53.8c-3.4,9-6.7,18-10.4,26.9
		c-3.2,7.6-6.9,15.1-10,22.7c-6.1,14.9-11,30.3-14.9,46c-0.4,1.4-0.7,2.9-1,4.3c0-10.5-0.2-20.9-0.8-31.4
		c-0.7-12.9-1.9-25.9-5.4-38.4c-2.1-10.6-1-21.2,1.9-31.6c2.8-10.1,6.8-19.9,9.8-29.9c5.7-18.8,8.5-38.6,9-58.2
		c0.9-38.5-7.7-77.5-26-111.5c-4.6-8.4-9.7-16.6-15.5-24.3c-2.9-3.9-6-7.7-9.1-11.3c-2.9-3.3-6.1-7.6-10.5-8.7
		c-5-1.2-7.7,3.1-10.2,6.7c-2.9,4.2-5.6,8.6-8,13.2c-4.8,9-8.8,18.5-11.4,28.3c-5.3,19.4-5.4,40.3,2.3,59
		c4.2,10.1,10.3,19,15.9,28.3c4.3,7.1,8.1,14.5,11.6,22c8.1,17.5,14.8,35.7,20.5,54.1c5.5,17.5,10.3,35.3,13.8,53.4
		c0.8,3.8,1.4,7.7,2.1,11.6c3.5,12.4,4.6,25.4,5.3,38.2c0.4,6.5,0.5,13,0.7,19.5c-13.6-40-33.5-77.8-58.7-111.6
		c-20.5-27.5-44.2-52.9-71.5-73.7c-0.7-0.5-1.4-1-2.1-1.5c0.6,0.2,1.2,0.5,1.8,0.7c1,0.4,2,0.7,2.9,1.1c0.9,0.3,1.9,0.7,2.9,1
		c0.9,0.3,1.8,0.6,2.8,0.9c0.9,0.3,1.8,0.5,2.7,0.8s1.7,0.5,2.6,0.7c0.8,0.2,1.7,0.4,2.5,0.6c0.8,0.2,1.6,0.4,2.4,0.6
		c0.8,0.2,1.6,0.3,2.4,0.5c0.8,0.1,1.5,0.3,2.3,0.4c0.9,0.1,1.8,0.3,2.7,0.4c0.7,0.1,1.4,0.2,2.1,0.2c0.7,0.1,1.3,0.1,2,0.2
		c0.6,0,1.3,0.1,1.9,0.1c0.6,0,1.2,0,1.8,0s1.2,0,1.7,0s1.1,0,1.6-0.1c0.5,0,1-0.1,1.5-0.1c0.7-0.1,1.3-0.2,2-0.3
		c0.5-0.1,0.9-0.2,1.4-0.3c0.4-0.1,0.9-0.2,1.3-0.3c0.4-0.1,0.8-0.2,1.2-0.4c0.4-0.1,0.7-0.3,1.1-0.4c0.5-0.2,1-0.4,1.5-0.6
		c0.3-0.2,0.6-0.3,0.9-0.5c0.3-0.2,0.6-0.3,0.8-0.5c0.4-0.3,0.8-0.6,1.1-0.9c0.2-0.2,0.4-0.4,0.6-0.6c0.2-0.2,0.4-0.4,0.5-0.6
		c0.3-0.3,0.5-0.7,0.8-1c0.1-0.2,0.2-0.4,0.3-0.7c0.2-0.4,0.3-0.8,0.5-1.2c0.1-0.2,0.1-0.5,0.2-0.7c0.1-0.4,0.1-0.8,0.1-1.2
		c0-0.2,0-0.5,0-0.7c0-0.4-0.1-0.9-0.2-1.3c-0.1-0.3-0.1-0.5-0.2-0.8c-0.2-0.4-0.3-0.8-0.5-1.2c-0.1-0.3-0.3-0.5-0.4-0.8
		c-0.2-0.3-0.3-0.5-0.5-0.8c-0.3-0.4-0.6-0.8-0.9-1.2c-0.2-0.3-0.5-0.5-0.7-0.8c-0.3-0.3-0.5-0.5-0.8-0.8s-0.6-0.5-0.9-0.8
		c-0.5-0.4-0.9-0.7-1.4-1.1c-0.4-0.3-0.7-0.5-1.1-0.8c-0.4-0.3-0.8-0.5-1.2-0.7s-0.9-0.5-1.3-0.7c-0.5-0.2-1-0.5-1.4-0.7
		c-0.7-0.3-1.3-0.6-2-0.9c-0.5-0.2-1.1-0.4-1.6-0.7c-0.6-0.2-1.2-0.4-1.7-0.6c-0.6-0.2-1.2-0.4-1.9-0.6c-0.7-0.2-1.3-0.4-2-0.6
		c-0.7-0.2-1.4-0.4-2.1-0.5c-0.7-0.2-1.4-0.3-2.2-0.5s-1.5-0.3-2.3-0.5c-0.8-0.1-1.6-0.3-2.4-0.4c-0.8-0.1-1.7-0.3-2.5-0.4
		c-1-0.1-2.1-0.3-3.1-0.4c-0.9-0.1-1.8-0.2-2.7-0.3s-1.9-0.2-2.8-0.2c-1-0.1-1.9-0.1-2.9-0.2c-1,0-2-0.1-3-0.1s-2.1,0-3.1,0
		c-1.1,0-2.2,0-3.3,0s-2.3,0-3.4,0.1c-1.2,0-2.3,0.1-3.5,0.1c-1.2,0.1-2.4,0.1-3.6,0.2c-1.2,0.1-2.5,0.2-3.7,0.3
		c-1.3,0.1-2.5,0.2-3.8,0.4c-0.4,0-0.9,0.1-1.3,0.1c0.2-0.1,0.3-0.2,0.5-0.3c0.6-0.4,1.2-0.7,1.8-1.1c0.6-0.4,1.2-0.7,1.8-1.1
		c0.6-0.4,1.2-0.7,1.8-1.1c0.6-0.4,1.1-0.7,1.7-1.1c0.6-0.4,1.1-0.7,1.7-1.1c0.5-0.3,1.1-0.7,1.6-1.1c0.5-0.3,1.1-0.7,1.6-1
		s1.1-0.7,1.6-1s1-0.7,1.5-1s1-0.7,1.5-1s1-0.7,1.5-1s1-0.7,1.4-1c0.5-0.3,0.9-0.7,1.4-1s0.9-0.7,1.4-1s0.9-0.7,1.3-1
		c0.4-0.3,0.9-0.6,1.3-1c0.4-0.3,0.9-0.6,1.3-1c0.4-0.3,0.8-0.6,1.2-1c0.5-0.4,1.1-0.8,1.6-1.2c0.4-0.3,0.8-0.6,1.2-0.9
		c0.4-0.3,0.8-0.6,1.2-0.9c0.4-0.3,0.8-0.6,1.1-0.9c0.4-0.3,0.7-0.6,1.1-0.9c0.4-0.3,0.7-0.6,1.1-0.9c0.3-0.3,0.7-0.6,1-0.9
		c0.3-0.3,0.7-0.6,1-0.9c0.3-0.3,0.6-0.6,1-0.9c0.3-0.3,0.6-0.6,0.9-0.9c0.3-0.3,0.6-0.6,0.9-0.8c0.3-0.3,0.6-0.6,0.9-0.8
		c0.3-0.3,0.6-0.5,0.8-0.8c0.3-0.3,0.5-0.5,0.8-0.8s0.5-0.5,0.8-0.8s0.5-0.5,0.8-0.8c0.2-0.3,0.5-0.5,0.7-0.8s0.5-0.5,0.7-0.8
		s0.5-0.5,0.7-0.8c0.2-0.2,0.4-0.5,0.7-0.7c0.2-0.2,0.4-0.5,0.6-0.7c0.2-0.2,0.4-0.5,0.6-0.7c0.2-0.2,0.4-0.5,0.6-0.7
		c0.3-0.4,0.6-0.7,0.8-1.1c0.2-0.2,0.3-0.5,0.5-0.7s0.3-0.4,0.5-0.7c0.2-0.2,0.3-0.4,0.5-0.7c0.2-0.2,0.3-0.4,0.4-0.6
		c0.1-0.2,0.3-0.4,0.4-0.6c0.1-0.2,0.3-0.4,0.4-0.6c0.1-0.2,0.2-0.4,0.4-0.6c0.1-0.2,0.2-0.4,0.3-0.6c0.1-0.2,0.2-0.4,0.3-0.6
		c0.1-0.2,0.2-0.4,0.3-0.6c0.1-0.2,0.2-0.4,0.3-0.6c0.1-0.2,0.2-0.4,0.2-0.5c0.1-0.3,0.3-0.7,0.4-1c0.1-0.2,0.1-0.3,0.2-0.5
		c0.1-0.2,0.1-0.3,0.2-0.5c0.1-0.2,0.1-0.3,0.2-0.5c0-0.2,0.1-0.3,0.1-0.5s0.1-0.3,0.1-0.5c0-0.1,0.1-0.3,0.1-0.4
		c0.1-0.3,0.1-0.6,0.1-0.9c0-0.1,0-0.3,0-0.4c0-0.1,0-0.3,0-0.4c0-0.1,0-0.2,0-0.4c0-0.1,0-0.2,0-0.4c0-0.3-0.1-0.6-0.1-0.9
		c0-0.1,0-0.2-0.1-0.3c0-0.1-0.1-0.2-0.1-0.3c-0.1-0.3-0.2-0.5-0.3-0.8c0-0.1-0.1-0.2-0.1-0.3s-0.1-0.2-0.2-0.3
		c-0.1-0.1-0.1-0.2-0.2-0.2c-0.2-0.2-0.3-0.4-0.5-0.6c-0.1-0.1-0.1-0.1-0.2-0.2c-0.1-0.1-0.2-0.1-0.2-0.2c-0.2-0.2-0.4-0.3-0.6-0.5
		c-0.1-0.1-0.2-0.1-0.3-0.2c-0.1-0.1-0.2-0.1-0.3-0.1c-0.3-0.1-0.5-0.2-0.8-0.3c-0.1,0-0.2-0.1-0.3-0.1s-0.2-0.1-0.3-0.1
		s-0.2-0.1-0.4-0.1c-0.3-0.1-0.6-0.1-0.9-0.1c-0.1,0-0.3,0-0.4,0c-0.1,0-0.3,0-0.4,0c-0.1,0-0.3,0-0.4,0c-0.1,0-0.3,0-0.4,0
		c-0.2,0-0.3,0-0.5,0c-0.3,0-0.7,0.1-1,0.1c-0.2,0-0.3,0.1-0.5,0.1s-0.3,0.1-0.5,0.1s-0.3,0.1-0.5,0.1s-0.4,0.1-0.5,0.1
		c-0.2,0.1-0.4,0.1-0.5,0.2c-0.2,0.1-0.4,0.1-0.6,0.2c-0.2,0.1-0.4,0.1-0.6,0.2c-0.2,0.1-0.4,0.1-0.6,0.2c-0.2,0.1-0.4,0.2-0.6,0.2
		c-0.4,0.1-0.7,0.3-1.1,0.5c-0.2,0.1-0.4,0.2-0.6,0.3c-0.2,0.1-0.4,0.2-0.6,0.3c-0.2,0.1-0.4,0.2-0.7,0.3c-0.2,0.1-0.5,0.2-0.7,0.3
		s-0.5,0.2-0.7,0.4c-0.2,0.1-0.5,0.3-0.7,0.4c-0.2,0.1-0.5,0.3-0.7,0.4c-0.2,0.1-0.5,0.3-0.7,0.4c-0.2,0.2-0.5,0.3-0.7,0.5
		c-0.3,0.2-0.5,0.3-0.8,0.5s-0.5,0.3-0.8,0.5s-0.5,0.3-0.8,0.5s-0.5,0.4-0.8,0.5c-0.3,0.2-0.5,0.4-0.8,0.6c-0.3,0.2-0.5,0.4-0.8,0.6
		c-0.3,0.2-0.5,0.4-0.8,0.6c-0.4,0.3-0.8,0.6-1.2,0.9c-0.3,0.2-0.6,0.4-0.8,0.7c-0.3,0.2-0.6,0.5-0.8,0.7c-0.3,0.2-0.6,0.5-0.9,0.7
		c-0.3,0.2-0.6,0.5-0.9,0.7c-0.3,0.2-0.6,0.5-0.9,0.8c-0.3,0.3-0.6,0.5-0.9,0.8c-0.3,0.3-0.6,0.5-0.9,0.8c-0.3,0.3-0.6,0.5-0.9,0.8
		c-0.3,0.3-0.6,0.6-0.9,0.9c-0.3,0.3-0.6,0.6-0.9,0.9c-0.3,0.3-0.6,0.6-0.9,0.9c-0.3,0.3-0.6,0.6-0.9,0.9c-0.3,0.3-0.6,0.6-0.9,1
		c-0.3,0.3-0.6,0.6-0.9,1c-0.3,0.3-0.6,0.7-0.9,1c-0.3,0.3-0.6,0.7-0.9,1c-0.3,0.4-0.6,0.7-1,1.1c-0.3,0.4-0.6,0.7-1,1.1
		c-0.3,0.4-0.6,0.7-1,1.1c-0.3,0.4-0.7,0.8-1,1.1c-0.3,0.4-0.7,0.8-1,1.2s-0.7,0.8-1,1.2s-0.7,0.8-1,1.2s-0.7,0.8-1,1.2
		s-0.7,0.8-1,1.3c-0.3,0.4-0.7,0.9-1,1.3c-0.4,0.6-0.9,1.1-1.3,1.7c-0.3,0.4-0.7,0.9-1,1.3c-0.3,0.5-0.7,0.9-1,1.4s-0.7,0.9-1,1.4
		s-0.7,1-1,1.4c-0.3,0.5-0.7,1-1,1.4c-0.3,0.5-0.7,1-1,1.5s-0.7,1-1,1.5s-0.7,1-1,1.5s-0.7,1-1,1.6c-0.3,0.5-0.7,1.1-1,1.6
		s-0.7,1.1-1,1.6c0,0.1-0.1,0.1-0.1,0.2c0-0.3,0-0.6,0-0.9c0-1.3,0-2.6,0-3.9c0-1.3,0-2.5-0.1-3.8c0-1.2-0.1-2.4-0.1-3.7
		c-0.1-1.2-0.1-2.4-0.2-3.6c-0.1-1.1-0.2-2.3-0.3-3.4c-0.1-1.1-0.2-2.2-0.3-3.3c-0.1-1.2-0.3-2.5-0.5-3.7c-0.1-1-0.3-2-0.5-3.1
		c-0.2-1-0.3-2-0.5-3c-0.2-0.9-0.4-1.9-0.6-2.8c-0.2-0.9-0.4-1.8-0.6-2.7c-0.2-0.9-0.4-1.7-0.7-2.6c-0.2-0.8-0.5-1.7-0.7-2.5
		s-0.5-1.6-0.8-2.4c-0.3-0.8-0.5-1.5-0.8-2.2s-0.5-1.4-0.8-2.1c-0.3-0.8-0.7-1.7-1.1-2.5c-0.3-0.6-0.6-1.3-0.9-1.9
		c-0.3-0.6-0.6-1.2-0.9-1.8c-0.3-0.6-0.6-1.1-0.9-1.7c-0.3-0.5-0.6-1.1-1-1.6c-0.3-0.5-0.6-1-1-1.5c-0.3-0.5-0.7-0.9-1-1.4
		c-0.4-0.6-0.9-1.1-1.3-1.6c-0.3-0.4-0.7-0.8-1-1.2s-0.7-0.7-1-1.1c-0.3-0.3-0.7-0.6-1-0.9c-0.5-0.4-0.9-0.8-1.4-1.1
		c-0.3-0.3-0.7-0.5-1-0.7s-0.7-0.4-1-0.6c-0.3-0.2-0.7-0.4-1-0.5c-0.5-0.2-1-0.4-1.5-0.6c-0.3-0.1-0.7-0.2-1-0.3s-0.6-0.2-1-0.3
		c-0.5-0.1-1-0.2-1.5-0.2c-0.3,0-0.6-0.1-0.9-0.1c-0.3,0-0.6,0-0.9,0c-0.5,0-0.9,0.1-1.4,0.2c-0.3,0.1-0.6,0.1-0.8,0.2
		c-0.4,0.1-0.9,0.3-1.3,0.5c-0.3,0.1-0.5,0.3-0.8,0.4c-0.3,0.1-0.5,0.3-0.7,0.5c-0.4,0.3-0.7,0.6-1.1,0.9c-0.2,0.2-0.4,0.4-0.7,0.7
		c-0.3,0.4-0.6,0.8-0.9,1.1c-0.2,0.3-0.4,0.5-0.6,0.8c-0.2,0.3-0.3,0.6-0.5,0.9c-0.2,0.5-0.4,1-0.6,1.5c-0.1,0.4-0.3,0.7-0.4,1.1
		c-0.1,0.4-0.2,0.8-0.3,1.2s-0.2,0.8-0.3,1.2c-0.1,0.6-0.2,1.2-0.3,1.8c-0.1,0.5-0.1,0.9-0.1,1.4s0,1,0,1.5s0,1,0,1.6
		c0,0.5,0.1,1.1,0.1,1.6c0.1,0.7,0.2,1.5,0.3,2.2c0.1,0.6,0.2,1.2,0.3,1.8s0.2,1.3,0.4,1.9c0.1,0.6,0.3,1.3,0.5,1.9
		c0.2,0.7,0.4,1.3,0.6,2c0.2,0.7,0.4,1.4,0.7,2.1c0.2,0.7,0.5,1.4,0.8,2.2c0.3,0.7,0.6,1.5,0.9,2.2c0.4,0.9,0.8,1.8,1.2,2.8
		c0.3,0.8,0.7,1.6,1.1,2.4c0.4,0.8,0.8,1.6,1.2,2.4c0.4,0.8,0.9,1.7,1.3,2.5c0.5,0.9,0.9,1.7,1.4,2.6c0.5,0.9,1,1.8,1.5,2.6
		c0.5,0.9,1.1,1.8,1.7,2.7c0.6,0.9,1.2,1.8,1.8,2.8c0.6,0.9,1.3,1.9,1.9,2.8c0.7,1,1.4,1.9,2.1,2.9c0.7,1,1.5,2,2.2,2.9
		c0.9,1.1,1.7,2.2,2.6,3.4c0.8,1,1.6,2,2.5,3s1.7,2.1,2.6,3.1c0.8,0.9,1.6,1.8,2.4,2.8c-1.3,0-2.6,0-3.8,0c-2.6,0-5.2,0.1-7.7,0.3
		c-2.4,0.1-4.9,0.3-7.3,0.5c-2.3,0.2-4.5,0.4-6.7,0.7c-2.3,0.3-4.5,0.6-6.8,1c-1.9,0.3-3.9,0.7-5.8,1.1c-1.8,0.4-3.6,0.8-5.3,1.2
		c-1.6,0.4-3.3,0.9-4.9,1.4c-1.5,0.5-3,0.9-4.4,1.5c-1.5,0.5-3,1.1-4.4,1.8c-1.2,0.5-2.4,1.1-3.5,1.7c-1,0.5-2.1,1.1-3.1,1.7
		c-0.9,0.6-1.8,1.1-2.7,1.8s-1.8,1.3-2.6,2.1c-0.6,0.6-1.2,1.1-1.8,1.8s-1.2,1.4-1.7,2.2c-0.4,0.5-0.7,1.1-1,1.7
		c-0.3,0.7-0.6,1.4-0.8,2.1c-0.2,0.7-0.3,1.4-0.3,2.1c0,0.7,0.1,1.4,0.2,2c0.2,0.6,0.4,1.3,0.7,1.8c0.3,0.6,0.7,1.1,1.2,1.6
		s1.1,1,1.7,1.4c0.5,0.4,1.1,0.7,1.6,0.9c0.8,0.4,1.6,0.7,2.4,0.9c0.8,0.2,1.5,0.4,2.3,0.5c1,0.2,2.1,0.3,3.2,0.4c1,0.1,2,0.1,3,0
		c1.1,0,2.2-0.1,3.3-0.2c1.4-0.1,2.8-0.3,4.1-0.6c1.3-0.2,2.6-0.5,3.9-0.8c1.4-0.3,2.8-0.7,4.2-1.2c1.5-0.5,3-1,4.5-1.5
		c1.6-0.6,3.2-1.2,4.8-1.9c1.9-0.8,3.7-1.6,5.5-2.4c1.8-0.9,3.6-1.7,5.4-2.7c1.9-1,3.8-2,5.6-3.1c2-1.1,4-2.3,5.9-3.5
		c2.1-1.3,4.2-2.6,6.2-4c2.2-1.5,4.3-2.9,6.4-4.5c1.4-1,2.7-2,4.1-3c0.1,0.4,0.1,0.8,0.2,1.2c0.1,0.7,0.3,1.3,0.4,2
		c0.1,0.7,0.3,1.3,0.4,2c0.1,0.7,0.3,1.3,0.4,2c0.1,0.6,0.3,1.3,0.4,1.9c0.1,0.6,0.3,1.3,0.4,1.9c0.1,0.6,0.3,1.2,0.4,1.9
		c0.1,0.6,0.3,1.2,0.4,1.8c0.2,0.6,0.3,1.2,0.5,1.8s0.3,1.2,0.5,1.8s0.3,1.1,0.5,1.7c0.2,0.6,0.3,1.1,0.5,1.7
		c0.2,0.6,0.3,1.1,0.5,1.7c0.2,0.5,0.3,1.1,0.5,1.6s0.3,1.1,0.5,1.6s0.3,1,0.5,1.6c0.2,0.5,0.3,1,0.5,1.5s0.3,1,0.5,1.5
		s0.3,1,0.5,1.5s0.4,1,0.5,1.4c0.2,0.5,0.4,0.9,0.5,1.4c0.2,0.5,0.4,0.9,0.5,1.4c0.2,0.5,0.4,0.9,0.5,1.3c0.2,0.4,0.4,0.9,0.5,1.3
		c0.2,0.6,0.5,1.2,0.7,1.7c0.2,0.4,0.4,0.8,0.6,1.3c0.2,0.4,0.4,0.8,0.6,1.2c0.2,0.4,0.4,0.8,0.6,1.2c0.2,0.4,0.4,0.8,0.6,1.2
		c0.2,0.4,0.4,0.8,0.6,1.1c0.2,0.4,0.4,0.7,0.6,1.1c0.2,0.4,0.4,0.7,0.6,1.1c0.2,0.4,0.4,0.7,0.6,1.1c0.2,0.3,0.4,0.7,0.6,1
		c0.2,0.3,0.4,0.7,0.6,1c0.2,0.3,0.4,0.6,0.6,1c0.2,0.3,0.4,0.6,0.6,0.9c0.2,0.3,0.4,0.6,0.6,0.9c0.2,0.3,0.4,0.6,0.6,0.9
		c0.2,0.3,0.4,0.6,0.6,0.9c0.2,0.3,0.4,0.6,0.6,0.8c0.2,0.3,0.4,0.5,0.6,0.8c0.2,0.3,0.4,0.5,0.6,0.8c0.3,0.4,0.6,0.8,0.9,1.1
		c0.2,0.2,0.4,0.5,0.6,0.7c0.2,0.2,0.4,0.5,0.6,0.7c0.2,0.2,0.4,0.4,0.6,0.7c0.2,0.2,0.4,0.4,0.6,0.6c0.2,0.2,0.4,0.4,0.6,0.6
		c0.2,0.2,0.4,0.4,0.6,0.6c0.2,0.2,0.4,0.4,0.6,0.6c0.2,0.2,0.4,0.4,0.5,0.5c0.2,0.2,0.4,0.3,0.5,0.5c0.2,0.2,0.4,0.3,0.5,0.5
		c0.2,0.2,0.4,0.3,0.5,0.5c0.2,0.1,0.4,0.3,0.5,0.4c0.3,0.2,0.6,0.5,0.9,0.7c0.2,0.1,0.3,0.3,0.5,0.4s0.3,0.2,0.5,0.4
		c0.2,0.1,0.3,0.2,0.5,0.3c0.2,0.1,0.3,0.2,0.5,0.3c0.2,0.1,0.3,0.2,0.5,0.3c0.2,0.1,0.3,0.2,0.5,0.3c0.2,0.1,0.3,0.2,0.5,0.2
		c0.3,0.1,0.6,0.3,0.9,0.4c0.2,0.1,0.3,0.1,0.5,0.2s0.3,0.1,0.5,0.2c0.2,0,0.3,0.1,0.5,0.1c0.1,0,0.3,0.1,0.4,0.1
		c0.1,0,0.3,0.1,0.4,0.1c0.3,0.1,0.6,0.1,0.9,0.1c0.1,0,0.3,0,0.4,0c0.1,0,0.3,0,0.4,0c0.1,0,0.3,0,0.4,0c0.1,0,0.3,0,0.4,0
		c0.3,0,0.6-0.1,0.9-0.1c0.1,0,0.2,0,0.4-0.1c0.1,0,0.2-0.1,0.4-0.1c0.1,0,0.2-0.1,0.3-0.1c0.3-0.1,0.5-0.2,0.8-0.3
		c0.1,0,0.2-0.1,0.3-0.2s0.2-0.1,0.3-0.2s0.2-0.1,0.3-0.2c0.2-0.2,0.5-0.3,0.7-0.5c0.1-0.1,0.2-0.2,0.3-0.2c0.1-0.1,0.2-0.2,0.3-0.3
		c0.1-0.1,0.2-0.2,0.2-0.3c0.2-0.2,0.4-0.5,0.5-0.7c0.1-0.1,0.1-0.2,0.2-0.3c0.1-0.1,0.1-0.2,0.2-0.3c0.1-0.1,0.1-0.2,0.2-0.4
		c0.1-0.1,0.1-0.3,0.2-0.4c0.1-0.3,0.2-0.6,0.4-0.9c0.1-0.1,0.1-0.3,0.1-0.4s0.1-0.3,0.1-0.4c0-0.2,0.1-0.3,0.1-0.5s0.1-0.3,0.1-0.5
		s0.1-0.3,0.1-0.5c0-0.3,0.1-0.7,0.1-1c0-0.2,0-0.4,0-0.5c0-0.2,0-0.4,0-0.6s0-0.4,0-0.6s0-0.4,0-0.6s0-0.4,0-0.6s0-0.4,0-0.6
		s0-0.4-0.1-0.6c0-0.2-0.1-0.4-0.1-0.7c-0.1-0.4-0.1-0.8-0.2-1.2c0-0.2-0.1-0.5-0.1-0.7s-0.1-0.5-0.1-0.7c-0.1-0.2-0.1-0.5-0.2-0.7
		c-0.1-0.3-0.1-0.5-0.2-0.8c-0.1-0.3-0.1-0.5-0.2-0.8c-0.1-0.3-0.1-0.5-0.2-0.8c-0.1-0.3-0.2-0.5-0.2-0.8c-0.1-0.3-0.2-0.5-0.3-0.8
		s-0.2-0.6-0.3-0.8c-0.1-0.3-0.2-0.6-0.3-0.8c-0.1-0.3-0.2-0.6-0.3-0.9s-0.2-0.6-0.4-0.9c-0.2-0.5-0.4-0.9-0.6-1.4
		c-0.1-0.3-0.3-0.6-0.4-0.9c-0.1-0.3-0.3-0.6-0.4-0.9c-0.1-0.3-0.3-0.6-0.4-0.9c-0.2-0.3-0.3-0.6-0.5-1c-0.2-0.3-0.3-0.6-0.5-1
		c-0.2-0.3-0.3-0.7-0.5-1s-0.4-0.7-0.5-1c-0.2-0.3-0.4-0.7-0.6-1c-0.2-0.3-0.4-0.7-0.6-1c-0.2-0.3-0.4-0.7-0.6-1
		c-0.2-0.4-0.4-0.7-0.6-1.1c-0.2-0.4-0.4-0.7-0.7-1.1c-0.2-0.4-0.5-0.7-0.7-1.1c-0.2-0.4-0.5-0.7-0.7-1.1c-0.2-0.4-0.5-0.7-0.7-1.1
		c-0.3-0.4-0.5-0.8-0.8-1.1c-0.3-0.4-0.5-0.8-0.8-1.1c-0.3-0.4-0.5-0.8-0.8-1.1c-0.3-0.4-0.6-0.8-0.9-1.2c-0.3-0.4-0.6-0.8-0.9-1.2
		c-0.4-0.5-0.8-1.1-1.2-1.6c-0.3-0.4-0.6-0.8-0.9-1.2c-0.3-0.4-0.6-0.8-1-1.2c-0.3-0.4-0.7-0.8-1-1.2s-0.7-0.8-1-1.2
		c-0.4-0.4-0.7-0.8-1.1-1.2c-0.4-0.4-0.7-0.8-1.1-1.3c-0.4-0.4-0.7-0.8-1.1-1.3c-0.4-0.4-0.8-0.9-1.2-1.3c-0.4-0.4-0.8-0.9-1.2-1.3
		c-0.4-0.4-0.8-0.9-1.2-1.3c-0.4-0.4-0.8-0.9-1.2-1.3c-0.3-0.3-0.5-0.6-0.8-0.8c3.1,2,6.1,4.1,9,6.3c11.9,8.8,23.1,18.6,33.7,28.9
		c27.9,27.3,51.7,58.9,70.6,93c12.7,23,23.1,47.2,31,72.2c0.2,0.7,0.7,1.1,1.2,1.2c0,6.4,0,12.9,0,19.3c-0.7,3.9-1.4,7.8-2,11.6l0,0
		c-7.5-17.3-19.2-31.8-34.3-43.2c-14.3-10.9-30.6-18.7-46.2-27.4c-7.3-4.1-14.6-8.4-21.3-13.5c-8.9-6.7-16.4-15-23.5-23.6
		c-8-9.8-15.4-20.1-23.9-29.5c-8-8.9-17.1-16.8-26.9-23.6c-21.8-15.1-47.3-24.4-73.6-27c-2.1-0.2-2.5,2.7-1,3.7
		c19.2,12.8,36.3,28.8,50.3,47.1c13.7,17.8,23.3,37.8,33.7,57.6c10.2,19.3,22,38,39.5,51.5c16.2,12.5,35.5,20,55.2,24.6
		c23.3,5.4,47.3,7,71.1,8.3c0,0,0,0,0.1,0c-2.6,17.9-4.1,35.9-4.5,53.9c-0.6,28.6,1.3,57.4,6.2,85.6c3.9,22.4,9.6,44.8,19.1,65.4
		c0.9,2.1,1.9,4.1,3,6.1c1.2,2.3,4.6,0.3,3.4-2c-9.9-19.2-15.7-40.4-19.9-61.4c-5.5-27.3-7.9-55.3-7.9-83.2
		c0-11.4,0.4-22.9,1.3-34.3c1.8-9.7,4.4-19.2,8.9-28.1c4.9-9.8,10.9-19,16.5-28.3c3.5,2,8.3,1.4,12,0.8c8.3-1.5,16.4-4.6,24.3-7.5
		c16.4-6,32.9-12.3,49.6-17.5c7.2-2.2,14.7-4.2,22.3-4.3c3,0,6.2,0.3,9,1.6c0.9,0.4,1.7,1,2.4,1.6c0.3,0.3,0.6,0.5,0.9,0.8
		c0,0,0.1,0,0.1,0.1c2,1.9,3.8,4.3,5.5,6.3c11,13.1,20.3,27.8,27.3,43.4c0.7,1.5,1.3,3,2,4.6c0.6,1.6,1.4,2.5,3.2,2.4
		c3.5-0.2,5.2-4.1,6-7c1.6-5.2,1.8-10.8,1.8-16.2c0-7.5-0.7-14.9-1.9-22.3c-2.6-16.5-7.8-33.5-17.5-47.3
		c-10.4-14.9-27.5-30.2-46.8-30c-20.7,0.2-38,15.7-52.7,28.5c-5.7,5-11.4,10.2-16.8,15.5c0,0.1-0.1,0.1-0.2,0.1
		c-9.4,9.3-18.1,19.3-25.5,30.1c-2.7,4-5.3,8.1-7.6,12.4c-6.1,10.2-12.7,20.1-17.9,30.7c-1.1,2.1-2,4.3-2.9,6.5
		c1.5-11.8,3.6-23.6,6.1-35.2c3.4-15.5,7.8-30.7,13.2-45.6c5.9-16.1,13.6-31.4,19.7-47.4c12-31.7,25.5-62.8,38.8-93.9
		c0-0.1,0.1-0.1,0.1-0.2c0-0.1,0-0.1,0-0.2c1.8-4.3,3.7-8.6,5.5-12.9c1.7-4,3.4-8.1,5.1-12.1c12.7-8.3,25.8-15.9,39.4-22.6
		c14.1-6.9,28.5-12.6,43.3-17.9c13.9-5,27.1-10.8,38.9-19.9c5.6-4.3,10.7-9.1,15.4-14.4c4.5-5.1,8.8-10.8,10.4-17.5
		c0.9-3.8,0.7-7.5-0.3-11.2c-1.1-3.9-2.9-7.6-3.1-11.6c-0.5-8.3,4.9-15.6,9.5-21.9C1207.4,299.9,1205.6,298,1204.1,298.5z
		 M1053.1,281.6c1,0.1,2,0.1,3,0.2c1,0.1,1.9,0.1,2.9,0.2c0.9,0.1,1.9,0.2,2.8,0.3s1.8,0.2,2.8,0.3c0.9,0.1,1.8,0.2,2.7,0.3
		c0.1,0,0.1,0,0.2,0c1.2,0.2,2.3,0.3,3.5,0.5c1.1,0.2,2.2,0.4,3.4,0.6c1.1,0.2,2.2,0.4,3.2,0.6c1,0.2,2.1,0.4,3.1,0.7
		c1,0.2,2,0.5,2.9,0.7s1.9,0.5,2.8,0.8c0.9,0.2,1.8,0.5,2.6,0.8c0.8,0.3,1.7,0.5,2.5,0.8s1.6,0.6,2.4,0.8c0.8,0.3,1.5,0.6,2.2,0.9
		c0.1,0,0.1,0.1,0.2,0.1c0.4,0.2,0.8,0.3,1.2,0.5c0.4,0.2,0.8,0.4,1.3,0.6c0.4,0.2,0.8,0.4,1.2,0.6c0.4,0.2,0.8,0.4,1.1,0.6
		c0.4,0.2,0.7,0.4,1.1,0.6c0.3,0.2,0.7,0.4,1,0.6c0.3,0.2,0.7,0.4,1,0.6c0.3,0.2,0.6,0.4,0.9,0.6c0.3,0.2,0.6,0.4,0.9,0.6
		c0.3,0.2,0.5,0.4,0.8,0.6c0.3,0.2,0.6,0.5,0.8,0.7c0.3,0.3,0.6,0.5,0.9,0.8s0.5,0.5,0.8,0.8c0.2,0.3,0.5,0.5,0.7,0.8
		c0.2,0.2,0.4,0.4,0.6,0.7c0.1,0.1,0.2,0.2,0.2,0.3c0.1,0.2,0.2,0.4,0.4,0.5c0.1,0.2,0.2,0.4,0.3,0.5c0.1,0.2,0.2,0.3,0.3,0.5
		c0,0.1,0.1,0.2,0.1,0.3c0.1,0.2,0.2,0.4,0.2,0.6c0.1,0.3,0.1,0.5,0.2,0.8v0.1c0,0.1,0,0.3,0,0.4c0,0.2,0,0.4,0,0.6l0,0
		c0,0.1,0,0.2-0.1,0.3c0,0.2-0.1,0.3-0.2,0.5c0,0.1-0.1,0.2-0.2,0.3c-0.1,0.2-0.2,0.3-0.3,0.5c-0.1,0.1-0.2,0.2-0.3,0.3
		c-0.2,0.2-0.3,0.3-0.5,0.5l0,0c-0.2,0.1-0.4,0.3-0.6,0.4c-0.3,0.2-0.6,0.3-0.9,0.5c-0.1,0-0.2,0.1-0.3,0.1
		c-0.2,0.1-0.3,0.1-0.5,0.2c-0.3,0.1-0.5,0.2-0.8,0.2c-0.3,0.1-0.5,0.1-0.8,0.2c-0.3,0.1-0.6,0.1-0.9,0.2c-0.3,0-0.5,0.1-0.8,0.1
		c-0.2,0-0.3,0-0.5,0.1c-0.3,0-0.5,0-0.8,0.1c-0.3,0-0.5,0-0.8,0s-0.6,0-0.8,0c-0.3,0-0.6,0-0.9,0s-0.6,0-0.9,0s-0.6,0-0.9,0
		s-0.6,0-0.9-0.1c-0.3,0-0.6-0.1-1-0.1c-0.3,0-0.6-0.1-0.9-0.1c-0.5-0.1-1-0.1-1.5-0.2c-0.6-0.1-1.1-0.2-1.7-0.3s-1.2-0.2-1.8-0.4
		c-0.6-0.1-1.2-0.3-1.8-0.4c-0.6-0.2-1.3-0.3-1.9-0.5c-0.7-0.2-1.3-0.4-2-0.6c-0.7-0.2-1.3-0.4-2-0.7c-0.7-0.2-1.4-0.5-2.1-0.7
		c-0.7-0.3-1.4-0.5-2.1-0.8s-1.5-0.6-2.2-0.9c-0.1,0-0.1-0.1-0.2-0.1c-0.5-0.2-1-0.4-1.6-0.7s-1.1-0.5-1.7-0.8s-1.2-0.5-1.7-0.8
		c-0.6-0.3-1.2-0.6-1.8-0.9c-0.6-0.3-1.2-0.6-1.8-0.9c-0.6-0.3-1.2-0.6-1.8-0.9c-0.6-0.3-1.2-0.7-1.9-1c-0.6-0.3-1.3-0.7-1.9-1.1
		c-0.6-0.4-1.3-0.7-1.9-1.1c-0.7-0.4-1.3-0.8-2-1.1c-0.7-0.4-1.3-0.8-2-1.2s-1.3-0.8-2-1.3c-0.7-0.4-1.4-0.9-2-1.3
		c-0.7-0.4-1.4-0.9-2.1-1.4s-1.4-0.9-2.1-1.4s-1.4-1-2.1-1.5s-1.4-1-2.2-1.5c-0.7-0.5-1.5-1.1-2.2-1.6s-1.3-1-2-1.5
		c0.8,0,1.6,0,2.4,0c1.1,0,2.2,0,3.2,0.1c1.1,0,2.1,0.1,3.2,0.1C1051.1,281.5,1052.1,281.6,1053.1,281.6z M1043.3,272.2
		c0.5-0.6,1-1.2,1.6-1.8c0.5-0.6,1-1.1,1.6-1.7c0.5-0.6,1-1.1,1.6-1.7c0.5-0.5,1-1.1,1.5-1.6s1-1.1,1.5-1.6s1-1,1.5-1.5s1-1,1.5-1.5
		s1-1,1.5-1.4c0.5-0.5,1-0.9,1.5-1.4s1-0.9,1.5-1.4c0.5-0.4,1-0.9,1.4-1.3c0.5-0.4,1-0.8,1.4-1.3c0.5-0.4,0.9-0.8,1.4-1.2
		s0.9-0.8,1.4-1.2s0.9-0.8,1.4-1.1c0.5-0.4,0.9-0.7,1.4-1.1c0.1-0.1,0.2-0.2,0.4-0.3c0.7-0.5,1.3-1,2-1.5s1.4-1,2.1-1.5
		s1.3-0.9,2-1.4c0.7-0.4,1.3-0.9,2-1.3c0.6-0.4,1.3-0.8,1.9-1.2s1.3-0.8,1.9-1.1s1.2-0.7,1.8-1c0.6-0.3,1.2-0.6,1.8-0.9
		c0.6-0.3,1.2-0.6,1.7-0.8c0.6-0.3,1.1-0.5,1.7-0.8l0,0c0.3-0.1,0.7-0.3,1-0.4c0.4-0.1,0.7-0.3,1.1-0.4c0.3-0.1,0.7-0.3,1-0.4
		c0.3-0.1,0.7-0.2,1-0.3s0.7-0.2,1-0.3s0.6-0.2,1-0.3c0.3-0.1,0.6-0.2,0.9-0.2c0.3-0.1,0.6-0.1,0.9-0.2c0.3-0.1,0.6-0.1,0.9-0.2
		c0.2,0,0.5-0.1,0.7-0.1c0.3,0,0.6-0.1,0.9-0.1s0.7-0.1,1-0.1s0.7,0,1,0s0.6,0,0.9,0c0.2,0,0.5,0,0.7,0.1c0.1,0,0.2,0,0.3,0.1
		c0.2,0,0.4,0.1,0.6,0.1s0.4,0.1,0.5,0.1c0.2,0.1,0.3,0.1,0.5,0.2c0.1,0,0.2,0.1,0.3,0.1c0.2,0.1,0.3,0.2,0.5,0.2
		c0.2,0.1,0.4,0.2,0.6,0.4c0,0,0,0,0.1,0.1s0.2,0.2,0.3,0.3c0.1,0.1,0.3,0.3,0.4,0.4l0,0c0.1,0.1,0.1,0.2,0.2,0.3s0.2,0.3,0.3,0.5
		c0.1,0.1,0.1,0.3,0.1,0.4c0.1,0.2,0.1,0.4,0.1,0.6c0,0.2,0,0.4,0,0.6c0,0.3,0,0.5,0,0.8c0,0.1,0,0.1,0,0.2c0,0.1,0,0.2-0.1,0.3
		c0,0.2-0.1,0.4-0.1,0.6c0,0.2-0.1,0.4-0.2,0.6c-0.1,0.2-0.1,0.4-0.2,0.6c-0.1,0.1-0.1,0.3-0.2,0.4c-0.1,0.2-0.2,0.5-0.3,0.7
		c-0.1,0.3-0.3,0.6-0.5,0.9c-0.2,0.3-0.4,0.6-0.5,0.9c-0.2,0.3-0.4,0.6-0.6,0.9c-0.2,0.3-0.4,0.6-0.6,0.8c-0.1,0.2-0.3,0.4-0.4,0.5
		c-0.2,0.2-0.4,0.5-0.6,0.7s-0.4,0.5-0.7,0.7c-0.2,0.3-0.5,0.5-0.7,0.7c-0.2,0.3-0.5,0.5-0.8,0.8s-0.5,0.5-0.8,0.8s-0.6,0.5-0.8,0.8
		c-0.3,0.3-0.6,0.5-0.9,0.8s-0.6,0.5-0.9,0.8c-0.3,0.2-0.6,0.5-0.9,0.7c-0.5,0.4-1,0.8-1.5,1.2c-0.6,0.4-1.2,0.8-1.7,1.2
		c-0.6,0.4-1.2,0.8-1.9,1.2c-0.7,0.4-1.3,0.8-2,1.2s-1.4,0.8-2.1,1.2s-1.5,0.8-2.2,1.2c-0.8,0.4-1.6,0.8-2.3,1.2
		c-0.8,0.4-1.6,0.8-2.5,1.2s-1.7,0.8-2.6,1.2s-1.8,0.8-2.7,1.2c-0.1,0-0.2,0.1-0.3,0.1c-0.9,0.4-1.9,0.8-2.8,1.2
		c-1,0.4-2,0.8-3.1,1.2s-2.1,0.8-3.2,1.2s-2.2,0.8-3.3,1.1c-1.1,0.4-2.3,0.8-3.5,1.1c-1.2,0.4-2.4,0.7-3.6,1.1
		c-1.2,0.4-2.5,0.7-3.7,1.1c-1.3,0.4-2.6,0.7-3.9,1s-2.7,0.7-4,1c-0.7,0.2-1.4,0.3-2.1,0.5c0.2-0.3,0.4-0.5,0.6-0.8
		c0.5-0.6,1.1-1.2,1.6-1.9C1042.2,273.4,1042.7,272.8,1043.3,272.2z M1031.4,233.9c0-0.7,0-1.4,0-2c0-0.7,0-1.3,0.1-2
		c0-0.6,0.1-1.3,0.1-1.9c0-0.6,0.1-1.3,0.1-1.9c0-0.6,0.1-1.2,0.1-1.8s0.1-1.2,0.2-1.8s0.1-1.2,0.2-1.7c0.1-0.6,0.1-1.1,0.2-1.7
		c0-0.1,0-0.3,0.1-0.4c0.1-0.6,0.2-1.2,0.3-1.9c0.1-0.6,0.2-1.3,0.3-1.9c0.1-0.6,0.2-1.2,0.4-1.9c0.1-0.6,0.2-1.2,0.4-1.8
		c0.1-0.6,0.3-1.1,0.4-1.7c0.1-0.5,0.3-1.1,0.4-1.6s0.3-1,0.4-1.5c0.2-0.5,0.3-1,0.5-1.5s0.3-0.9,0.5-1.4c0.2-0.4,0.3-0.8,0.5-1.2
		s0.3-0.8,0.5-1.2s0.4-0.8,0.6-1.2s0.4-0.7,0.6-1.1c0.2-0.3,0.4-0.7,0.6-1c0.2-0.2,0.3-0.5,0.5-0.7c0.2-0.3,0.4-0.5,0.6-0.8
		s0.5-0.5,0.8-0.8c0.1-0.1,0.1-0.1,0.2-0.2c0.1-0.1,0.2-0.2,0.4-0.3c0.2-0.1,0.3-0.2,0.5-0.3s0.4-0.1,0.6-0.2c0.1,0,0.3,0,0.4,0
		s0.3,0.1,0.4,0.1c0.2,0.1,0.4,0.2,0.5,0.3s0.2,0.2,0.3,0.2c0.2,0.1,0.3,0.3,0.4,0.5l0,0c0.2,0.2,0.4,0.5,0.5,0.7
		c0.2,0.3,0.4,0.7,0.5,1c0.1,0.1,0.1,0.2,0.2,0.4c0.1,0.3,0.2,0.6,0.4,0.9c0.1,0.4,0.3,0.8,0.4,1.2c0.1,0.5,0.2,0.9,0.3,1.4
		c0.1,0.5,0.2,1,0.3,1.5c0.1,0.5,0.2,1,0.2,1.5c0.1,0.5,0.1,1,0.2,1.5c0.1,0.6,0.1,1.2,0.2,1.8c0,0.7,0.1,1.3,0.1,2s0,1.4,0,2.1
		c0,0.7,0,1.5,0,2.2c0,0.8,0,1.6-0.1,2.3c0,0.8-0.1,1.6-0.1,2.5c-0.1,0.9-0.1,1.7-0.2,2.6c-0.1,0.9-0.2,1.8-0.3,2.7
		c-0.1,0.9-0.2,1.9-0.3,2.8c0,0.1,0,0.2,0,0.3c-0.2,1.3-0.4,2.6-0.6,3.9c-0.2,1.4-0.5,2.8-0.7,4.2c-0.3,1.5-0.5,2.9-0.8,4.4
		s-0.6,3.1-1,4.6c-0.4,1.6-0.7,3.2-1.1,4.8c-0.4,1.7-0.8,3.4-1.3,5c-0.5,1.8-1,3.5-1.5,5.3s-1.1,3.6-1.6,5.5
		c-0.6,1.9-1.2,3.8-1.8,5.7c-0.4,1.2-0.8,2.3-1.2,3.5c-0.2-0.9-0.3-1.8-0.5-2.7c-0.2-1.1-0.4-2.1-0.5-3.2c-0.2-1-0.3-2.1-0.5-3.1
		s-0.3-2-0.4-3c-0.1-0.8-0.2-1.7-0.3-2.5c-0.1-0.9-0.2-1.7-0.3-2.6c-0.1-0.8-0.2-1.7-0.3-2.5c-0.1-0.8-0.2-1.6-0.2-2.5
		c-0.1-0.8-0.1-1.6-0.2-2.4c-0.1-0.8-0.1-1.6-0.2-2.4c0-0.8-0.1-1.5-0.1-2.3s-0.1-1.5-0.1-2.3c0-0.7-0.1-1.5-0.1-2.2s0-1.4,0-2.2
		c0-0.7,0-1.4,0-2.1C1031.4,235.3,1031.4,234.6,1031.4,233.9z M1023.4,277.1c-1.5-0.2-2.9-0.4-4.4-0.6c-1.5-0.2-2.9-0.5-4.4-0.7
		c-1.4-0.2-2.8-0.5-4.2-0.8c-1.3-0.3-2.7-0.6-4-0.9c-1.3-0.3-2.5-0.6-3.8-0.9c-1.2-0.3-2.4-0.6-3.6-1c-1.1-0.3-2.3-0.7-3.4-1
		c-1.1-0.3-2.2-0.7-3.3-1.1c-1-0.4-2.1-0.7-3.1-1.1c-1-0.4-2-0.8-2.9-1.2c-0.1,0-0.2-0.1-0.4-0.1c-0.6-0.2-1.1-0.5-1.7-0.7
		c-0.6-0.3-1.2-0.5-1.7-0.8c-0.6-0.3-1.1-0.5-1.7-0.8c-0.5-0.3-1.1-0.5-1.6-0.8s-1-0.5-1.5-0.8s-1-0.6-1.4-0.8
		c-0.5-0.3-0.9-0.6-1.4-0.8c-0.4-0.3-0.9-0.6-1.3-0.9c-0.4-0.3-0.8-0.6-1.2-0.9c-0.4-0.3-0.8-0.6-1.1-0.8c-0.5-0.4-1-0.8-1.4-1.1
		c-0.5-0.4-0.9-0.8-1.4-1.2c-0.4-0.4-0.8-0.8-1.2-1.2s-0.8-0.8-1.1-1.2s-0.6-0.7-0.9-1.1c-0.2-0.2-0.4-0.5-0.5-0.7
		c-0.2-0.3-0.4-0.6-0.6-0.9c-0.2-0.3-0.4-0.6-0.5-0.9c-0.2-0.3-0.3-0.6-0.5-0.9c-0.1-0.2-0.2-0.5-0.3-0.7c-0.1-0.1-0.1-0.3-0.2-0.4
		c-0.1-0.2-0.2-0.4-0.2-0.7c-0.1-0.2-0.1-0.4-0.2-0.6c-0.1-0.2-0.1-0.4-0.1-0.6c0-0.1,0-0.2-0.1-0.4c0-0.3-0.1-0.5-0.1-0.8
		s0-0.7,0-1c0-0.1,0-0.1,0-0.2c0-0.2,0.1-0.4,0.1-0.6c0.1-0.3,0.1-0.5,0.2-0.8c0,0,0-0.1,0.1-0.1c0.1-0.2,0.2-0.4,0.3-0.5
		c0.1-0.2,0.3-0.5,0.4-0.7c0,0,0-0.1,0.1-0.1c0.1-0.2,0.3-0.4,0.4-0.5c0.2-0.2,0.4-0.4,0.6-0.6l0.1-0.1c0.2-0.2,0.5-0.4,0.7-0.5
		c0.3-0.2,0.6-0.4,1-0.5c0.1-0.1,0.2-0.1,0.3-0.2c0.2-0.1,0.3-0.1,0.5-0.2c0.2-0.1,0.5-0.2,0.7-0.2c0.3-0.1,0.5-0.1,0.8-0.2
		c0.3-0.1,0.5-0.1,0.8-0.2c0.2,0,0.4-0.1,0.6-0.1c0.3,0,0.7-0.1,1-0.1c0.4,0,0.8-0.1,1.3-0.1c0.4,0,0.9,0,1.3,0c0.5,0,0.9,0,1.4,0.1
		c0.4,0,0.9,0.1,1.3,0.1c0.3,0,0.5,0.1,0.8,0.1c0.3,0.1,0.7,0.1,1,0.2c0.4,0.1,0.7,0.1,1.1,0.2c0.4,0.1,0.7,0.2,1.1,0.3
		c0.4,0.1,0.7,0.2,1.1,0.3c0.4,0.1,0.8,0.2,1.1,0.3c0.4,0.1,0.8,0.2,1.2,0.4c0.4,0.1,0.8,0.3,1.2,0.4c0.4,0.1,0.8,0.3,1.2,0.5
		s0.8,0.3,1.2,0.5c0.5,0.2,1.1,0.5,1.6,0.7c0.6,0.3,1.2,0.5,1.7,0.8c0.6,0.3,1.2,0.6,1.8,0.9c0.6,0.3,1.2,0.6,1.8,1
		c0.6,0.3,1.2,0.7,1.8,1.1c0.6,0.4,1.3,0.8,1.9,1.1c0.6,0.4,1.3,0.8,1.9,1.2c0.7,0.4,1.3,0.9,2,1.3c0.7,0.5,1.3,0.9,2,1.4
		s1.3,1,2,1.5c0.1,0,0.1,0.1,0.2,0.1c0.8,0.6,1.6,1.3,2.4,1.9c0.8,0.7,1.7,1.4,2.5,2.1c0.9,0.7,1.7,1.5,2.5,2.2
		c0.9,0.8,1.7,1.6,2.6,2.4c0.9,0.8,1.8,1.7,2.6,2.5c0.9,0.9,1.8,1.8,2.7,2.7s1.8,1.9,2.7,2.8c0.9,1,1.8,2,2.7,3
		c0.9,1,1.8,2.1,2.7,3.1c0.6,0.8,1.3,1.5,1.9,2.3c-0.7-0.1-1.4-0.1-2.2-0.2c-1.2-0.1-2.5-0.3-3.7-0.4
		C1024.6,277.2,1024,277.1,1023.4,277.1z M1031.6,288.2c-0.3,1.5-0.7,3-1,4.5c-0.3,1.4-0.7,2.9-1.1,4.3c-0.4,1.4-0.7,2.7-1.1,4.1
		c-0.4,1.3-0.8,2.6-1.2,3.9c-0.4,1.3-0.8,2.5-1.2,3.8c-0.4,1.2-0.8,2.4-1.2,3.6c-0.4,1.1-0.8,2.3-1.3,3.4c-0.4,1.1-0.9,2.2-1.3,3.2
		c0,0.1-0.1,0.2-0.1,0.4c-0.7,1.6-1.4,3.2-2.2,4.8c-0.7,1.5-1.5,3-2.2,4.4s-1.5,2.7-2.3,4c-0.7,1.2-1.5,2.4-2.3,3.6
		c-0.7,1.1-1.5,2.2-2.3,3.2l0,0c-0.5,0.6-0.9,1.2-1.4,1.8s-1,1.1-1.5,1.7c-0.5,0.5-0.9,1-1.4,1.5s-0.9,0.9-1.4,1.3
		c-0.4,0.4-0.8,0.7-1.3,1.1c-0.6,0.4-1.1,0.8-1.7,1.2c-0.6,0.4-1.1,0.7-1.7,1c-0.2,0.1-0.5,0.2-0.7,0.3c-0.3,0.1-0.6,0.3-1,0.4
		c-0.4,0.1-0.7,0.2-1.1,0.3c-0.1,0-0.2,0-0.2,0c-0.5,0.1-1,0.1-1.5,0.1l0,0c-0.4-0.1-0.7-0.1-1.1-0.3c-0.3-0.1-0.6-0.3-0.8-0.5
		c-0.3-0.2-0.5-0.4-0.7-0.7c-0.3-0.4-0.5-0.8-0.7-1.2v-0.1c-0.1-0.3-0.2-0.6-0.3-0.9c-0.1-0.4-0.2-0.8-0.3-1.1c0-0.1,0-0.2-0.1-0.3
		c-0.1-0.6-0.1-1.2-0.1-1.8c0-0.7,0-1.4,0.1-2.1c0-0.3,0.1-0.7,0.1-1c0.1-0.5,0.2-1.1,0.3-1.6c0.1-0.7,0.3-1.3,0.5-2
		s0.4-1.4,0.6-2.1c0.2-0.7,0.5-1.5,0.7-2.2c0.3-0.7,0.6-1.5,0.9-2.2c0.5-1.2,1.1-2.4,1.7-3.6c0.7-1.3,1.3-2.6,2.1-3.9
		c0.8-1.4,1.6-2.8,2.5-4.1c0.9-1.5,1.9-2.9,2.9-4.3c1.1-1.5,2.2-3,3.3-4.5c0.1-0.1,0.1-0.2,0.2-0.3c0.6-0.8,1.3-1.6,1.9-2.4
		c0.7-0.9,1.4-1.7,2.1-2.6c0.7-0.9,1.5-1.7,2.2-2.6c0.8-0.9,1.6-1.8,2.4-2.7c0.8-0.9,1.7-1.8,2.5-2.7c0.9-0.9,1.8-1.8,2.7-2.7
		s1.9-1.9,2.8-2.8c1-1,2-1.9,3-2.8c1-1,2.1-1.9,3.1-2.9c0.9-0.8,1.8-1.6,2.7-2.4c-0.1,0.3-0.1,0.6-0.2,0.9
		C1032.3,285.1,1032,286.7,1031.6,288.2z M972.3,502.1c-2.7,11-7,21.7-10.5,32.6c-6.2-15.5-7.8-32.7-5.1-49.2
		c1.5-9,4.1-17.8,7.9-26.1c4.1-8.9,9-17.3,10.9-27c0.7-3.5,1.1-7,1.4-10.6c0.9,8,1.5,16,1.6,23.9C979,464.7,976.8,483.7,972.3,502.1
		z M950.6,524.4c-5.2-18.2-11.2-36.2-18.3-53.7c-6.5-15.9-14-31-23.1-45.6c-5.8-9.2-11.2-18.6-14.2-29.1c-2.7-9.5-3.5-19.4-2.7-29.2
		c1.5-20.1,9.4-39.5,20.2-56.3c1.3-2,2.6-4.1,4.1-6c0.8-1,1.6-2.2,3.1-2.3s2.9,1,4,1.8c3.6,2.9,6.6,7,9.5,10.5
		c6,7.3,11.4,15.1,16.2,23.2c11.4,19.2,19.3,40.2,24.1,61.9c0,0.1-0.1,0.2-0.1,0.3c0.3,10,0.6,20.1-1.2,30
		c-1.9,10.2-7,18.8-11.2,28.2c-7.6,16.8-10.8,35.6-8.7,53.9c1.1,9.9,3.8,19.4,7.9,28.5c-1,3.8-1.9,7.6-2.5,11.4
		C955.5,542.8,953.2,533.5,950.6,524.4z M816.1,428.7c0.9-0.1,1.7-0.2,2.6-0.2c0.8-0.1,1.7-0.1,2.5-0.2c0.8-0.1,1.6-0.1,2.5-0.2
		c0.8-0.1,1.6-0.1,2.4-0.1c0.8,0,1.6-0.1,2.3-0.1c0.8,0,1.5-0.1,2.3-0.1s1.5,0,2.3-0.1c0.7,0,1.5,0,2.2,0s1.4,0,2.2,0
		c0.7,0,1.4,0,2.1,0c0.7,0,1.4,0,2.1,0.1c0.7,0,1.3,0.1,2,0.1s1.3,0.1,2,0.1c0.6,0,1.3,0.1,1.9,0.1c0.6,0.1,1.2,0.1,1.9,0.2
		c0.6,0.1,1.2,0.1,1.8,0.2c0.6,0.1,1.2,0.1,1.8,0.2c0.1,0,0.3,0,0.4,0.1c0.7,0.1,1.4,0.2,2.1,0.3c0.7,0.1,1.4,0.2,2.1,0.4
		c0.7,0.1,1.4,0.3,2.1,0.4c0.7,0.1,1.3,0.3,2,0.4c0.6,0.1,1.3,0.3,1.9,0.5c0.6,0.2,1.2,0.3,1.8,0.5s1.1,0.3,1.7,0.5
		c0.5,0.2,1.1,0.4,1.6,0.5c0.5,0.2,1,0.4,1.5,0.6c0.5,0.2,1,0.4,1.4,0.6c0.5,0.2,1.1,0.5,1.6,0.7c0.5,0.3,1.1,0.5,1.6,0.8
		s1,0.5,1.5,0.8s0.9,0.5,1.3,0.8c0.4,0.3,0.7,0.5,1.1,0.8c0.2,0.1,0.4,0.3,0.5,0.4c0.2,0.2,0.4,0.4,0.7,0.6c0.2,0.2,0.4,0.4,0.6,0.6
		c0.2,0.2,0.4,0.4,0.5,0.6c0.1,0.1,0.2,0.3,0.3,0.4c0.2,0.2,0.3,0.5,0.5,0.7c0.2,0.3,0.3,0.6,0.5,0.9c0,0.1,0.1,0.1,0.1,0.2
		c0.1,0.2,0.1,0.3,0.2,0.5c0.1,0.2,0.1,0.5,0.2,0.7c0,0,0,0,0,0.1s0,0.3,0,0.4c0,0.2,0,0.4,0,0.6c0,0.1,0,0.2-0.1,0.4
		c0,0.2-0.1,0.4-0.2,0.5c-0.1,0.1-0.1,0.3-0.2,0.4c-0.1,0.2-0.2,0.4-0.3,0.5l0,0c-0.1,0.2-0.3,0.3-0.4,0.5c-0.2,0.2-0.4,0.4-0.6,0.6
		l-0.1,0.1c-0.3,0.2-0.6,0.4-0.9,0.6c-0.4,0.2-0.7,0.4-1.1,0.6c-0.1,0.1-0.3,0.1-0.4,0.2c-0.3,0.1-0.5,0.2-0.8,0.3
		c-0.4,0.1-0.7,0.2-1.1,0.4c-0.4,0.1-0.8,0.2-1.2,0.3s-0.8,0.2-1.3,0.3c-0.4,0.1-0.8,0.1-1.2,0.2c-0.3,0-0.6,0.1-0.9,0.1
		c-0.4,0-0.8,0.1-1.2,0.1s-0.8,0.1-1.2,0.1s-0.8,0-1.3,0c-0.4,0-0.9,0-1.3,0c-0.5,0-0.9,0-1.4,0s-0.9,0-1.4-0.1
		c-0.5,0-1-0.1-1.4-0.1c-0.5,0-1-0.1-1.5-0.1c-0.5-0.1-1-0.1-1.5-0.2c-0.8-0.1-1.6-0.2-2.4-0.4c-0.9-0.1-1.7-0.3-2.6-0.5
		c-0.9-0.2-1.8-0.4-2.7-0.6c-0.9-0.2-1.9-0.4-2.8-0.7c-1-0.3-2-0.5-3-0.8s-2.1-0.6-3.1-0.9c-1.1-0.3-2.1-0.7-3.2-1
		c-1.1-0.4-2.2-0.8-3.3-1.2s-2.3-0.8-3.4-1.3c-1.2-0.5-2.3-0.9-3.5-1.4c-0.2-0.1-0.3-0.1-0.5-0.2c-0.7-0.3-1.4-0.6-2.1-0.9
		c-0.8-0.3-1.5-0.7-2.3-1s-1.5-0.7-2.3-1.1c-0.8-0.4-1.6-0.7-2.3-1.1c-0.8-0.4-1.6-0.8-2.4-1.2c-0.8-0.4-1.6-0.8-2.4-1.2
		c-0.8-0.4-1.6-0.8-2.4-1.3c-0.8-0.4-1.7-0.9-2.5-1.3c-0.8-0.5-1.7-0.9-2.5-1.4c-0.2-0.1-0.4-0.2-0.6-0.3l0,0c0.2,0,0.4-0.1,0.6-0.1
		c0.9-0.1,1.7-0.2,2.6-0.3c0.9-0.1,1.8-0.2,2.7-0.3C814.4,428.9,815.2,428.8,816.1,428.7z M807.4,423.1c0.5-0.8,1.1-1.7,1.6-2.5
		s1.1-1.6,1.6-2.4c0.5-0.8,1.1-1.6,1.6-2.4c0.5-0.8,1.1-1.6,1.6-2.3c0.5-0.8,1.1-1.5,1.6-2.2s1-1.5,1.6-2.2c0.5-0.7,1-1.4,1.6-2.1
		c0.5-0.7,1-1.4,1.6-2.1c0-0.1,0.1-0.1,0.1-0.2c0.4-0.5,0.8-1.1,1.2-1.6s0.9-1.1,1.3-1.6c0.4-0.5,0.9-1.1,1.3-1.6
		c0.4-0.5,0.8-1,1.3-1.5c0.4-0.5,0.8-1,1.3-1.5c0.4-0.5,0.8-1,1.3-1.4c0.4-0.5,0.8-0.9,1.3-1.4c0.4-0.5,0.8-0.9,1.2-1.4
		c0.4-0.4,0.8-0.9,1.2-1.3c0.4-0.4,0.8-0.8,1.2-1.3c0.4-0.4,0.8-0.8,1.2-1.2s0.8-0.8,1.2-1.2s0.8-0.8,1.2-1.1
		c0.4-0.4,0.8-0.7,1.2-1.1c0.4-0.4,0.8-0.7,1.2-1.1c0.4-0.3,0.8-0.7,1.1-1c0.4-0.3,0.8-0.7,1.1-1c0.4-0.3,0.7-0.6,1.1-0.9
		c0.4-0.3,0.7-0.6,1.1-0.9c0.4-0.3,0.7-0.6,1.1-0.9c0.1-0.1,0.1-0.1,0.2-0.2c0.4-0.3,0.8-0.6,1.2-0.9c0.4-0.3,0.9-0.6,1.3-1
		c0.4-0.3,0.9-0.6,1.3-0.9c0.4-0.3,0.8-0.6,1.3-0.8c0.4-0.3,0.8-0.5,1.2-0.8c0.4-0.2,0.8-0.5,1.2-0.7s0.8-0.4,1.2-0.6
		c0.4-0.2,0.7-0.4,1.1-0.6c0.4-0.2,0.7-0.4,1.1-0.5c0.3-0.2,0.6-0.3,1-0.4c0.3-0.1,0.7-0.3,1-0.4c0.4-0.1,0.7-0.3,1.1-0.4
		c0.4-0.1,0.7-0.2,1.1-0.3c0.3-0.1,0.7-0.2,1-0.2c0.3-0.1,0.5-0.1,0.8-0.1c0.1,0,0.2,0,0.3,0c0.2,0,0.4,0,0.5,0c0.2,0,0.3,0,0.5,0
		s0.3,0,0.5,0c0.1,0,0.1,0,0.2,0c0.1,0,0.3,0,0.4,0.1c0.2,0,0.4,0.1,0.5,0.2l0,0c0.1,0,0.1,0.1,0.2,0.1c0.1,0.1,0.2,0.1,0.3,0.2
		c0,0,0.1,0,0.1,0.1c0.1,0.1,0.1,0.1,0.2,0.2c0,0,0,0.1,0.1,0.1c0.1,0.1,0.1,0.2,0.1,0.3s0.1,0.1,0.1,0.2c0,0.1,0.1,0.3,0.1,0.4
		c0,0.2,0,0.3,0,0.5s0,0.5,0,0.7v0.1c0,0.1,0,0.3-0.1,0.4c0,0.2-0.1,0.4-0.1,0.6c-0.1,0.2-0.1,0.4-0.2,0.7c-0.1,0.2-0.2,0.5-0.2,0.7
		c-0.1,0.2-0.1,0.4-0.2,0.6c-0.1,0.1-0.1,0.3-0.2,0.4c-0.1,0.2-0.2,0.5-0.3,0.7s-0.2,0.5-0.4,0.7c-0.1,0.2-0.3,0.5-0.4,0.7
		c-0.1,0.2-0.3,0.5-0.4,0.7c-0.2,0.3-0.3,0.5-0.5,0.8s-0.3,0.5-0.5,0.8s-0.4,0.5-0.5,0.8c-0.2,0.3-0.4,0.5-0.6,0.8
		c-0.2,0.3-0.4,0.5-0.6,0.8c-0.2,0.2-0.3,0.4-0.5,0.7s-0.4,0.6-0.7,0.8c-0.2,0.3-0.5,0.6-0.7,0.8c-0.2,0.3-0.5,0.6-0.7,0.9
		c-0.3,0.3-0.5,0.6-0.8,0.9c-0.3,0.3-0.5,0.6-0.8,0.9c-0.3,0.3-0.6,0.6-0.9,0.9c-0.3,0.3-0.6,0.6-0.9,0.9c-0.3,0.3-0.6,0.6-0.9,0.9
		c-0.3,0.3-0.6,0.6-1,0.9c-0.3,0.3-0.7,0.6-1,1c-0.3,0.3-0.7,0.7-1,1c-0.4,0.3-0.7,0.7-1.1,1c-0.4,0.3-0.8,0.7-1.1,1
		c-0.4,0.3-0.8,0.7-1.2,1s-0.8,0.7-1.2,1c-0.4,0.4-0.8,0.7-1.3,1c-0.4,0.4-0.9,0.7-1.3,1.1c-0.4,0.4-0.9,0.7-1.3,1.1
		c-0.5,0.4-0.9,0.7-1.4,1.1c-0.1,0.1-0.3,0.2-0.4,0.3c-0.4,0.3-0.9,0.7-1.3,1c-0.5,0.4-1,0.7-1.4,1.1c-0.5,0.4-1,0.7-1.5,1.1
		c-0.5,0.4-1,0.7-1.5,1.1c-0.5,0.4-1.1,0.8-1.6,1.1c-0.5,0.4-1.1,0.8-1.6,1.1c-0.6,0.4-1.1,0.8-1.7,1.1c-0.6,0.4-1.1,0.8-1.7,1.2
		c-0.6,0.4-1.2,0.8-1.7,1.2c-0.6,0.4-1.2,0.8-1.8,1.2s-1.2,0.8-1.8,1.2s-1.3,0.8-1.9,1.2c-0.6,0.4-1.3,0.8-1.9,1.2
		c-0.7,0.4-1.3,0.8-2,1.2s-1.3,0.8-2,1.2s-1.4,0.8-2.1,1.2c-0.7,0.4-1.4,0.8-2.1,1.2c-0.7,0.4-1.4,0.8-2.2,1.2
		c-0.7,0.4-1.3,0.8-2,1.2C806.6,424.3,807,423.7,807.4,423.1z M792,415.1c-0.7-0.9-1.4-1.8-2.1-2.7c-0.8-1-1.6-2-2.3-3.1
		c-0.7-1-1.5-2-2.2-3s-1.4-2-2-3s-1.3-1.9-1.9-2.9c-0.6-0.9-1.2-1.9-1.8-2.8c-0.6-0.9-1.1-1.8-1.6-2.8c-0.5-0.9-1-1.8-1.5-2.7
		s-0.9-1.7-1.4-2.6c-0.4-0.8-0.8-1.7-1.2-2.6c-0.4-0.8-0.8-1.6-1.1-2.5c0-0.1,0-0.1-0.1-0.2c-0.5-1.1-0.9-2.2-1.3-3.3
		c-0.4-1-0.8-2.1-1.1-3.2c-0.3-1-0.6-2-0.9-3c-0.2-0.9-0.5-1.9-0.7-2.9c-0.2-0.9-0.3-1.7-0.5-2.6c-0.1-0.5-0.1-1.1-0.2-1.6
		c-0.1-0.6-0.1-1.1-0.1-1.7c0-0.5,0-1.1,0-1.6s0-1,0.1-1.5c0-0.4,0.1-0.8,0.1-1.3c0.1-0.6,0.2-1.2,0.3-1.8s0.3-1.2,0.5-1.7
		c0.1-0.2,0.2-0.4,0.2-0.6c0.1-0.3,0.3-0.6,0.4-0.9c0.2-0.3,0.4-0.7,0.6-1c0.1-0.1,0.1-0.2,0.2-0.3c0.2-0.2,0.3-0.4,0.5-0.6
		c0.2-0.2,0.4-0.4,0.6-0.6l0.1-0.1c0.2-0.1,0.3-0.2,0.5-0.4c0.2-0.1,0.5-0.3,0.7-0.4c0,0,0.1,0,0.1-0.1c0.2-0.1,0.4-0.2,0.6-0.2
		c0.3-0.1,0.5-0.1,0.8-0.2h0.1c0.2,0,0.5-0.1,0.7-0.1c0.3,0,0.6,0,0.9,0c0.1,0,0.1,0,0.2,0c0.3,0.1,0.7,0.1,1,0.2
		c0.4,0.1,0.8,0.2,1.2,0.4c0.1,0,0.2,0.1,0.3,0.1c0.5,0.2,0.9,0.4,1.3,0.7c0.5,0.3,1,0.6,1.5,0.9c0.2,0.2,0.4,0.3,0.6,0.5
		c0.3,0.2,0.5,0.4,0.8,0.7s0.7,0.6,1,0.9c0.3,0.3,0.7,0.7,1,1c0.3,0.4,0.7,0.7,1,1.1c0.3,0.3,0.6,0.7,0.9,1.1
		c0.4,0.5,0.8,1.1,1.2,1.7c0.4,0.7,0.9,1.3,1.3,2c0.4,0.7,0.8,1.4,1.2,2.2s0.8,1.6,1.2,2.4c0.4,0.8,0.8,1.7,1.1,2.5
		c0.3,0.6,0.5,1.2,0.7,1.8c0.3,0.7,0.5,1.4,0.8,2c0.3,0.7,0.5,1.4,0.7,2.2c0.2,0.7,0.5,1.5,0.7,2.2c0.2,0.8,0.4,1.6,0.7,2.3
		c0.2,0.8,0.4,1.6,0.6,2.5c0.2,0.8,0.4,1.7,0.6,2.6c0.2,0.9,0.4,1.8,0.5,2.7c0.2,0.9,0.3,1.8,0.5,2.8s0.3,1.9,0.4,2.9
		c0,0.1,0,0.2,0,0.3c0.1,0.9,0.2,1.8,0.3,2.6c0.1,0.9,0.2,1.9,0.3,2.8c0.1,1,0.2,1.9,0.2,2.9c0.1,1,0.1,2,0.2,3
		c0.1,1,0.1,2.1,0.1,3.1c0,1.1,0.1,2.1,0.1,3.2c0,1.1,0,2.2,0,3.3s0,2.3,0,3.4c0,1.2,0,2.3-0.1,3.5c0,0.7-0.1,1.4-0.1,2.2
		c-0.5-0.5-0.9-1-1.4-1.6c-0.8-0.9-1.7-1.9-2.5-2.9c-0.8-0.9-1.6-1.9-2.4-2.8C793.5,416.9,792.7,416,792,415.1z M797.5,430.7
		c-1.4,1.1-2.9,2.1-4.4,3.2c-1.4,1-2.8,2-4.3,2.9c-1.4,0.9-2.8,1.8-4.2,2.7c-1.3,0.8-2.7,1.7-4,2.5s-2.6,1.5-3.9,2.3
		c-1.3,0.7-2.5,1.4-3.8,2.1c-1.2,0.7-2.4,1.3-3.7,1.9c-1.2,0.6-2.4,1.2-3.6,1.7c-1.1,0.5-2.3,1-3.4,1.5c-0.1,0.1-0.3,0.1-0.4,0.2
		c-1.5,0.6-3,1.2-4.5,1.8c-1.4,0.5-2.8,1-4.3,1.5c-1.3,0.4-2.7,0.8-4,1.2c-1.2,0.3-2.5,0.6-3.7,0.9c-1.2,0.2-2.3,0.4-3.5,0.6
		c-0.7,0.1-1.3,0.2-2,0.2c-0.7,0.1-1.3,0.1-2,0.1c-0.6,0-1.2,0-1.9,0c-0.6,0-1.2,0-1.7-0.1c-0.5,0-1-0.1-1.5-0.1
		c-0.6-0.1-1.2-0.2-1.8-0.3s-1.2-0.3-1.7-0.5c-0.2-0.1-0.4-0.2-0.6-0.2c-0.3-0.1-0.5-0.2-0.8-0.4s-0.6-0.3-0.9-0.5l-0.1-0.1
		c-0.3-0.3-0.7-0.6-1-0.9c-0.2-0.3-0.4-0.6-0.5-0.9c-0.1-0.3-0.2-0.6-0.3-0.9c0-0.4-0.1-0.7,0-1.1c0.1-0.5,0.2-1,0.4-1.5
		c0,0,0-0.1,0.1-0.1c0.1-0.3,0.3-0.6,0.5-0.9c0.2-0.4,0.4-0.7,0.7-1.1c0.1-0.1,0.2-0.2,0.2-0.3c0.4-0.5,0.8-1,1.3-1.5
		c0.5-0.6,1.1-1.1,1.7-1.6c0.3-0.2,0.6-0.5,0.9-0.7c0.5-0.4,1-0.7,1.5-1.1c0.6-0.4,1.2-0.8,1.9-1.2s1.4-0.8,2.1-1.2
		c0.8-0.4,1.5-0.8,2.3-1.2s1.6-0.8,2.4-1.1c0.7-0.3,1.3-0.6,2-0.8c0.8-0.3,1.5-0.6,2.3-0.8c0.8-0.3,1.6-0.5,2.4-0.8
		c0.8-0.3,1.7-0.5,2.5-0.8c0.9-0.3,1.8-0.5,2.7-0.7s1.9-0.5,2.8-0.7c1-0.2,2-0.4,2.9-0.7c1-0.2,2-0.4,3.1-0.6
		c1.1-0.2,2.1-0.4,3.2-0.6c1.1-0.2,2.2-0.3,3.4-0.5c0.1,0,0.3,0,0.4-0.1c1.8-0.2,3.6-0.5,5.4-0.6c2-0.2,3.9-0.4,5.9-0.5
		c2.1-0.1,4.1-0.3,6.2-0.3c2.2-0.1,4.4-0.2,6.5-0.2c2,0,4,0,6,0C798.2,430.1,797.9,430.4,797.5,430.7z M839.8,500.1L839.8,500.1
		C839.9,500.1,839.9,500.1,839.8,500.1L839.8,500.1z M819.8,448.2c0.4,0.4,0.8,0.9,1.2,1.3c0.4,0.4,0.8,0.9,1.2,1.3
		c0.4,0.4,0.8,0.9,1.1,1.3c0.4,0.4,0.7,0.9,1.1,1.3c0.4,0.4,0.7,0.9,1.1,1.3c0.4,0.4,0.7,0.8,1,1.3c0.3,0.4,0.7,0.8,1,1.3
		c0.3,0.4,0.7,0.8,1,1.2c0.1,0.1,0.2,0.2,0.3,0.3c0.3,0.4,0.5,0.7,0.8,1.1c0.3,0.4,0.6,0.8,0.9,1.2c0.3,0.4,0.6,0.8,0.9,1.2
		c0.3,0.4,0.6,0.8,0.8,1.2c0.3,0.4,0.5,0.8,0.8,1.1c0.3,0.4,0.5,0.8,0.8,1.1c0.2,0.4,0.5,0.7,0.7,1.1c0.2,0.4,0.5,0.7,0.7,1.1
		c0.2,0.4,0.5,0.7,0.7,1.1c0.2,0.4,0.4,0.7,0.7,1.1c0.2,0.4,0.4,0.7,0.6,1.1c0.2,0.3,0.4,0.7,0.6,1.1c0.2,0.3,0.4,0.7,0.6,1
		c0.2,0.3,0.4,0.7,0.6,1c0.2,0.3,0.4,0.7,0.5,1c0.2,0.3,0.3,0.7,0.5,1s0.3,0.6,0.5,1c0.2,0.3,0.3,0.6,0.5,1c0.1,0.3,0.3,0.6,0.4,0.9
		c0.1,0.3,0.3,0.6,0.4,0.9v0.1c0.2,0.4,0.3,0.7,0.4,1.1c0.2,0.4,0.3,0.8,0.4,1.2c0.1,0.4,0.3,0.8,0.4,1.1c0.1,0.4,0.3,0.7,0.4,1.1
		c0.1,0.4,0.2,0.7,0.3,1.1c0.1,0.3,0.2,0.7,0.3,1s0.2,0.7,0.3,1s0.2,0.7,0.2,1c0.1,0.3,0.1,0.6,0.2,1c0,0.3,0.1,0.6,0.1,0.9
		c0,0.1,0,0.2,0,0.3c0,0.2,0,0.4,0.1,0.6c0,0.2,0,0.4,0,0.5c0,0.2,0,0.4,0,0.5c0,0.2,0,0.3,0,0.5s0,0.3,0,0.5s0,0.3,0,0.5
		s0,0.3,0,0.5s0,0.3,0,0.5c0,0.1,0,0.2,0,0.3c0,0.1,0,0.3-0.1,0.4c0,0.2-0.1,0.4-0.1,0.6s-0.1,0.4-0.1,0.5c-0.1,0.2-0.1,0.3-0.2,0.5
		c0,0.1-0.1,0.2-0.1,0.3v0.1c-0.1,0.1-0.1,0.2-0.2,0.3c-0.1,0.1-0.1,0.2-0.2,0.3c-0.1,0.1-0.1,0.2-0.2,0.3c0,0,0,0,0,0.1
		c-0.1,0.1-0.2,0.2-0.2,0.3c-0.1,0.1-0.3,0.3-0.4,0.4c-0.1,0.1-0.2,0.1-0.3,0.2s-0.3,0.2-0.4,0.2c-0.1,0-0.2,0.1-0.3,0.1
		c-0.2,0.1-0.4,0.1-0.6,0.1c0,0,0,0-0.1,0h-0.1c-0.1,0-0.2,0-0.4,0c-0.1,0-0.2,0-0.4,0c-0.1,0-0.2,0-0.4,0H840c-0.1,0-0.2,0-0.3,0
		c-0.2,0-0.3-0.1-0.5-0.1s-0.4-0.1-0.5-0.1c-0.2-0.1-0.4-0.1-0.5-0.2c-0.1,0-0.2-0.1-0.3-0.1c-0.2-0.1-0.4-0.2-0.6-0.3
		c-0.3-0.1-0.5-0.3-0.8-0.4c-0.3-0.2-0.5-0.3-0.8-0.5s-0.6-0.4-0.8-0.6c-0.3-0.2-0.5-0.4-0.7-0.5s-0.3-0.2-0.5-0.4
		c-0.2-0.2-0.4-0.4-0.7-0.6c-0.2-0.2-0.4-0.4-0.7-0.6c-0.2-0.2-0.5-0.4-0.7-0.6s-0.5-0.4-0.7-0.7c-0.2-0.2-0.5-0.5-0.7-0.7
		s-0.5-0.5-0.7-0.8s-0.5-0.5-0.7-0.8s-0.5-0.6-0.7-0.8c-0.2-0.3-0.4-0.6-0.7-0.8c-0.2-0.2-0.3-0.4-0.4-0.6c-0.2-0.2-0.4-0.5-0.5-0.7
		c-0.2-0.3-0.4-0.5-0.5-0.8c-0.2-0.3-0.4-0.5-0.5-0.8c-0.2-0.3-0.4-0.5-0.5-0.8c-0.2-0.3-0.4-0.6-0.6-0.8c-0.2-0.3-0.4-0.6-0.6-0.9
		c-0.2-0.3-0.4-0.6-0.5-0.9c-0.2-0.3-0.4-0.6-0.6-0.9c-0.2-0.3-0.4-0.6-0.5-1c-0.2-0.3-0.4-0.7-0.5-1c-0.2-0.3-0.4-0.7-0.5-1
		c-0.2-0.3-0.4-0.7-0.5-1c-0.2-0.4-0.4-0.7-0.5-1.1c-0.2-0.4-0.4-0.7-0.5-1.1c-0.2-0.4-0.4-0.7-0.5-1.1c-0.2-0.4-0.4-0.8-0.5-1.1
		c-0.2-0.4-0.4-0.8-0.5-1.2c-0.2-0.4-0.4-0.8-0.5-1.2c-0.2-0.4-0.4-0.8-0.5-1.2c0-0.1-0.1-0.2-0.1-0.3c-0.2-0.5-0.4-1-0.6-1.5
		c-0.2-0.6-0.4-1.1-0.7-1.7c-0.2-0.6-0.4-1.1-0.7-1.7c-0.2-0.6-0.4-1.2-0.7-1.8c-0.2-0.6-0.4-1.2-0.6-1.8c-0.2-0.6-0.4-1.2-0.6-1.9
		c-0.2-0.6-0.4-1.3-0.6-1.9c-0.2-0.6-0.4-1.3-0.6-1.9c-0.2-0.7-0.4-1.3-0.6-2c-0.2-0.7-0.4-1.4-0.6-2c-0.2-0.7-0.4-1.4-0.6-2.1
		c-0.2-0.7-0.4-1.4-0.6-2.1c-0.2-0.7-0.4-1.5-0.6-2.2c-0.2-0.7-0.4-1.5-0.5-2.2c-0.2-0.8-0.4-1.5-0.5-2.3c-0.2-0.8-0.4-1.6-0.5-2.3
		c-0.2-0.8-0.3-1.6-0.5-2.4c-0.2-0.8-0.3-1.6-0.5-2.4c0-0.1,0-0.2-0.1-0.4c0.5,0.5,1,0.9,1.5,1.4s1,1,1.5,1.4c0.5,0.5,1,0.9,1.5,1.4
		s1,0.9,1.4,1.4c0.5,0.5,0.9,0.9,1.4,1.4s0.9,0.9,1.4,1.4c0.4,0.5,0.9,0.9,1.3,1.4c0.4,0.5,0.9,0.9,1.3,1.4c0.4,0.4,0.8,0.9,1.3,1.3
		C818.9,447.3,819.4,447.7,819.8,448.2z M1055.4,579.1c8.9-6.4,19.2-12.2,30.3-12.9c10.5-0.7,20.2,3.9,28.4,10.2
		c8.3,6.3,15.4,14.4,20.6,23.4c8.7,15.1,13.1,32.9,14.7,50.1c0.7,7.5,1,15.3-0.2,22.8c-0.4,2.3-0.8,4.7-1.9,6.8
		c-0.3,0.6-0.8,1.2-1,1.4c-3-7.8-7-15.3-11.2-22.4c-4.2-7.2-8.9-14.1-14-20.7c-3-3.8-6.1-7.6-9.3-11.1c-0.3-0.3-0.5-0.6-0.8-0.8
		c-0.1-0.1-0.1-0.2-0.2-0.2c-9-8.7-18.6-17.4-29.9-22.9s-23.6-7.3-36-5.3c-5.5,0.9-10.8,2.4-15.9,4.4c0.5-0.4,0.9-0.9,1.4-1.3
		C1038.4,592.8,1046.6,585.5,1055.4,579.1z M1021,609.1c12.6-6,26.6-10.2,40.7-8.4c11.4,1.5,21.7,6.9,30.7,13.8
		c2.5,1.9,4.8,3.9,7.1,6c-3.6-0.4-7.3-0.1-10.8,0.4c-6.6,0.9-13.1,2.7-19.4,4.8c-14.2,4.6-28.3,9.7-42.3,14.9
		c-8.2,3-16.3,6.2-24.8,8.3c-3.4,0.8-9.3,2.6-12.8,0.5C997.7,634.4,1008.9,621.1,1021,609.1z M853.1,589.2
		c6.4,5.4,13.3,9.9,20.5,14.1c14.9,8.7,30.7,16,45.1,25.7c16.5,11,29.9,25.3,38.4,43.2c-12.1-3.8-24.2-7.6-36.3-11.5
		c-12-3.9-24.1-8.3-35-14.6c-9.5-5.5-17.3-12.3-23.7-21.2c-6.5-9-11.7-19-16.4-29.1c-3.8-8.1-7.1-16.4-10.1-24.9
		C840.9,577.4,846.6,583.7,853.1,589.2z M841,645.6c-17.8-12.6-30-30.6-40.2-49.5c-10.6-19.6-19.9-39.8-33.2-57.8
		c-13.3-18.1-29.4-34-47.5-47.1c20.7,3.2,40.6,10.6,58.3,21.8c9.9,6.2,19,13.6,27.2,21.9c8.6,8.8,16,18.7,23.7,28.4
		c-0.2,0.4-0.3,0.9-0.1,1.5c6.8,20.6,15.3,41.3,27.5,59.4c6,8.9,13.1,16.4,22.1,22.4c10.9,7.2,23.1,12.1,35.3,16.2
		c12.1,4.1,24.4,7.9,36.6,11.8C912.8,672.1,872.6,667.9,841,645.6z M1063.2,403.8c6.3-11.9,14.2-22.8,23.1-32.9
		c8.2-9.4,17.2-18.2,27.1-25.7c12.2-9.1,25.8-16.6,39.6-23.1c12.1-5.7,24.5-10.6,37.2-14.9c-17.3,11.2-35.7,20.6-51.1,34.3
		c-4.6,4.1-8.9,8.6-12.6,13.5c-4.5,5.8-8,12.2-11.7,18.6c-7.2,12.3-16.5,22.7-27,32.3c-10.8,9.8-22.5,18.6-34.2,27.3
		C1054.4,422.8,1058.4,412.9,1063.2,403.8z M1193.3,326.7c0.7,3.4,2.2,6.7,3,10.1c1.8,7.4-1.5,14.2-5.9,20
		c-4.2,5.6-9.3,10.7-14.7,15.2c-11.5,9.8-24.9,16.3-39,21.4c-14.2,5.2-28.3,10.5-41.9,17c-5.3,2.5-10.6,5.3-15.8,8.1
		c2-1.7,4.1-3.3,6.1-5c10.4-8.9,20.5-18.7,28.2-30.1c4.1-6.1,7.4-12.6,11.3-18.8c3.6-5.8,7.8-11.1,12.6-15.9
		c9-9,19.6-16.2,30.4-22.9c10.1-6.3,20.5-12.3,30.3-19.1c-2,3.3-3.7,6.7-4.5,10.5C1192.7,320.3,1192.6,323.5,1193.3,326.7z"/>
	<path id="XMLID_106_" class="st0" d="M1090.3,522.7L1090.3,522.7C1090.4,522.6,1090.4,522.5,1090.3,522.7z"/>
	<path id="XMLID_229_" class="st0" d="M1084.8,513.3c-0.7,0.2-1.2,0.8-1.4,1.5c-0.1-0.1-0.2-0.2-0.4-0.2c-1-0.2-2.2,0.3-2.4,1.4
		c-0.5,3-0.9,6.3,0.8,9c1.4,2.2,3.8,3.3,6.4,3.1c2.5-0.3,4.8-1.5,6.1-3.6c1.4-2.4,1.1-5.5-0.5-7.7
		C1091.5,514.1,1088.1,512.5,1084.8,513.3z M1087.2,517.1c-0.1,0-0.1,0-0.2,0C1087.1,517.1,1087.2,517.1,1087.2,517.1z
		 M1090.8,521.8c0,0.1-0.1,0.2-0.1,0.3c-0.1,0.2-0.2,0.3-0.3,0.5c-0.1,0.1-0.1,0.2-0.2,0.3c0-0.1,0-0.1,0.1-0.1
		c-0.1,0.1-0.3,0.3-0.4,0.4s-0.1,0.1-0.2,0.1c0,0,0,0-0.1,0c-0.3,0.2-0.7,0.3-1,0.5c0.4-0.3,0.3-0.1,0.1,0c-0.1,0-0.2,0.1-0.3,0.1
		c-0.2,0.1-0.4,0.1-0.7,0.2c-0.1,0-0.2,0-0.3,0c0,0,0,0,0.1,0c-0.2,0-0.4,0-0.5,0s-0.2,0-0.3,0l0,0c-0.1,0-0.1,0-0.2,0h0.1
		c-0.1,0-0.2,0-0.3-0.1c-0.2,0-0.3-0.1-0.5-0.2h0.1l0,0c-0.1-0.1-0.2-0.1-0.3-0.2l-0.1-0.1c-0.1-0.1-0.3-0.3-0.4-0.4l-0.1-0.1
		c-0.1-0.2-0.2-0.3-0.3-0.5c0,0,0-0.1-0.1-0.1c-0.1-0.1-0.1-0.3-0.1-0.4c-0.1-0.3-0.2-0.6-0.2-0.9c0,0,0,0,0-0.1l0,0
		c0-0.2,0-0.3,0-0.5c0-0.6,0-1.3,0-1.9c0-0.2,0-0.3,0-0.5c0-0.1,0-0.1,0-0.2c0.1-0.3,0.1-0.7,0.2-1c0,0,0,0,0-0.1
		c0.4,0.2,0.9,0.3,1.4,0.2c0,0,0.1,0,0.2-0.1c0.1,0,0.1,0,0.2,0c0.2,0,0.5,0,0.7,0c0,0,0,0,0.1,0s0.1,0,0.2,0
		c0.3,0.1,0.5,0.1,0.8,0.2h0.1l0,0c0.1,0,0.1,0.1,0.1,0.1c0.2,0.1,0.4,0.2,0.7,0.4c0.1,0,0.2,0.1,0.2,0.2c0,0,0.1,0,0.1,0.1
		c0.2,0.2,0.4,0.4,0.6,0.6c0.1,0.1,0.1,0.1,0.2,0.2l0,0l0,0c0.1,0.2,0.3,0.4,0.4,0.6c0.1,0.1,0.1,0.2,0.2,0.4l0,0
		c0.1,0.2,0.2,0.6,0.2,0.7s0,0.1,0,0.1c0,0.1,0,0.2,0,0.3c0,0.1,0,0.4,0,0.6c0,0,0,0,0,0.1C1090.8,521.6,1090.8,521.7,1090.8,521.8z
		"/>
	<path id="XMLID_102_" class="st0" d="M1085.8,523.9C1086,524,1086.1,524,1085.8,523.9L1085.8,523.9z"/>
	<path id="XMLID_101_" class="st0" d="M1086.6,524.1L1086.6,524.1L1086.6,524.1L1086.6,524.1
		C1086.8,524.1,1086.8,524.1,1086.6,524.1z"/>
	<path id="XMLID_100_" class="st0" d="M1087.6,524.1L1087.6,524.1C1087.8,524.1,1088,524,1087.6,524.1z"/>
</g>
</svg>
